<svg width="24" height="24" viewBox="0 0 24 24" fill="none" xmlns="http://www.w3.org/2000/svg">
<path d="M8.66699 12.3333L10.1728 14.0543C10.5962 14.5382 11.3596 14.5025 11.7361 13.9813L15.3337 9" stroke="#656565" stroke-width="1.5" stroke-linecap="round" stroke-linejoin="round"/>
<path d="M3 12C3 7.75736 3 5.63604 4.31802 4.31802C5.63604 3 7.75736 3 12 3C16.2426 3 18.364 3 19.682 4.31802C21 5.63604 21 7.75736 21 12C21 16.2426 21 18.364 19.682 19.682C18.364 21 16.2426 21 12 21C7.75736 21 5.63604 21 4.31802 19.682C3 18.364 3 16.2426 3 12Z" stroke="#656565" stroke-width="1.5" stroke-linecap="round" stroke-linejoin="round"/>
</svg>
