<svg width="20" height="20" viewBox="0 0 20 20" fill="none" xmlns="http://www.w3.org/2000/svg">
<g clip-path="url(#clip0_3561_1728)">
<path d="M15.8333 0H4.16667C3.062 0.00132321 2.00296 0.440735 1.22185 1.22185C0.440735 2.00296 0.00132321 3.062 0 4.16667L0 15.8333C0.00132321 16.938 0.440735 17.997 1.22185 18.7782C2.00296 19.5593 3.062 19.9987 4.16667 20H15.8333C16.938 19.9987 17.997 19.5593 18.7782 18.7782C19.5593 17.997 19.9987 16.938 20 15.8333V4.16667C19.9987 3.062 19.5593 2.00296 18.7782 1.22185C17.997 0.440735 16.938 0.00132321 15.8333 0ZM4.16667 1.66667H15.8333C16.4964 1.66667 17.1323 1.93006 17.6011 2.3989C18.0699 2.86774 18.3333 3.50363 18.3333 4.16667V15.8333C18.3319 16.2046 18.2464 16.5707 18.0833 16.9042L10.4475 9.26833C10.0606 8.88131 9.6012 8.57429 9.0956 8.36483C8.59001 8.15537 8.0481 8.04756 7.50083 8.04756C6.95357 8.04756 6.41166 8.15537 5.90606 8.36483C5.40047 8.57429 4.94109 8.88131 4.55417 9.26833L1.66667 12.155V4.16667C1.66667 3.50363 1.93006 2.86774 2.3989 2.3989C2.86774 1.93006 3.50363 1.66667 4.16667 1.66667ZM4.16667 18.3333C3.50363 18.3333 2.86774 18.0699 2.3989 17.6011C1.93006 17.1323 1.66667 16.4964 1.66667 15.8333V14.5117L5.73167 10.4467C5.96383 10.2144 6.2395 10.0301 6.54292 9.90432C6.84634 9.77858 7.17156 9.71387 7.5 9.71387C7.82844 9.71387 8.15366 9.77858 8.45708 9.90432C8.7605 10.0301 9.03617 10.2144 9.26833 10.4467L16.9042 18.0833C16.5707 18.2464 16.2046 18.3319 15.8333 18.3333H4.16667Z" fill="#656565"/>
<path d="M13.3337 8.75033C13.9105 8.75033 14.4744 8.57927 14.9541 8.25878C15.4337 7.93829 15.8076 7.48277 16.0283 6.94982C16.2491 6.41687 16.3068 5.83043 16.1943 5.26465C16.0817 4.69887 15.804 4.17917 15.3961 3.77127C14.9882 3.36336 14.4685 3.08558 13.9027 2.97304C13.3369 2.8605 12.7505 2.91826 12.2175 3.13901C11.6845 3.35977 11.229 3.7336 10.9085 4.21325C10.5881 4.69289 10.417 5.2568 10.417 5.83366C10.417 6.60721 10.7243 7.34907 11.2713 7.89605C11.8182 8.44304 12.5601 8.75033 13.3337 8.75033ZM13.3337 4.58366C13.5809 4.58366 13.8226 4.65697 14.0281 4.79432C14.2337 4.93168 14.3939 5.1269 14.4885 5.35531C14.5831 5.58371 14.6079 5.83505 14.5596 6.07752C14.5114 6.32 14.3924 6.54273 14.2175 6.71754C14.0427 6.89236 13.82 7.01141 13.5775 7.05964C13.335 7.10787 13.0837 7.08312 12.8553 6.98851C12.6269 6.8939 12.4317 6.73368 12.2943 6.52812C12.157 6.32256 12.0837 6.08089 12.0837 5.83366C12.0837 5.50214 12.2154 5.1842 12.4498 4.94978C12.6842 4.71536 13.0021 4.58366 13.3337 4.58366Z" fill="#656565"/>
</g>
<defs>
<clipPath id="clip0_3561_1728">
<rect width="20" height="20" fill="white"/>
</clipPath>
</defs>
</svg>
