<svg width="20" height="20" viewBox="0 0 20 20" fill="none" xmlns="http://www.w3.org/2000/svg">
<path d="M19.1666 9.16699H17.4999V7.50033C17.4999 7.27931 17.4121 7.06735 17.2558 6.91107C17.0996 6.75479 16.8876 6.66699 16.6666 6.66699C16.4456 6.66699 16.2336 6.75479 16.0773 6.91107C15.921 7.06735 15.8333 7.27931 15.8333 7.50033V9.16699H14.1666C13.9456 9.16699 13.7336 9.25479 13.5773 9.41107C13.421 9.56735 13.3333 9.77931 13.3333 10.0003C13.3333 10.2213 13.421 10.4333 13.5773 10.5896C13.7336 10.7459 13.9456 10.8337 14.1666 10.8337H15.8333V12.5003C15.8333 12.7213 15.921 12.9333 16.0773 13.0896C16.2336 13.2459 16.4456 13.3337 16.6666 13.3337C16.8876 13.3337 17.0996 13.2459 17.2558 13.0896C17.4121 12.9333 17.4999 12.7213 17.4999 12.5003V10.8337H19.1666C19.3876 10.8337 19.5996 10.7459 19.7558 10.5896C19.9121 10.4333 19.9999 10.2213 19.9999 10.0003C19.9999 9.77931 19.9121 9.56735 19.7558 9.41107C19.5996 9.25479 19.3876 9.16699 19.1666 9.16699Z" fill="white"/>
<path d="M7.5 10C8.48891 10 9.45561 9.70676 10.2779 9.15735C11.1001 8.60794 11.741 7.82705 12.1194 6.91342C12.4978 5.99979 12.5969 4.99446 12.4039 4.02455C12.211 3.05465 11.7348 2.16373 11.0355 1.46447C10.3363 0.765206 9.44536 0.289002 8.47545 0.0960758C7.50555 -0.0968503 6.50021 0.00216643 5.58658 0.380605C4.67295 0.759043 3.89206 1.39991 3.34265 2.22215C2.79324 3.0444 2.5 4.0111 2.5 5C2.50132 6.32568 3.02853 7.59668 3.96593 8.53407C4.90332 9.47147 6.17432 9.99868 7.5 10ZM7.5 1.66667C8.15927 1.66667 8.80374 1.86217 9.3519 2.22844C9.90006 2.59471 10.3273 3.1153 10.5796 3.72439C10.8319 4.33348 10.8979 5.0037 10.7693 5.6503C10.6407 6.29691 10.3232 6.89085 9.85702 7.35703C9.39085 7.8232 8.7969 8.14067 8.1503 8.26929C7.5037 8.3979 6.83348 8.33189 6.22439 8.0796C5.6153 7.82731 5.09471 7.40007 4.72843 6.8519C4.36216 6.30374 4.16667 5.65927 4.16667 5C4.16667 4.11595 4.51786 3.2681 5.14298 2.64298C5.7681 2.01786 6.61595 1.66667 7.5 1.66667Z" fill="white"/>
<path d="M7.5 11.667C5.51155 11.6692 3.60518 12.4601 2.19914 13.8661C0.79309 15.2722 0.00220571 17.1785 0 19.167C0 19.388 0.0877974 19.6 0.244078 19.7562C0.400358 19.9125 0.61232 20.0003 0.833333 20.0003C1.05435 20.0003 1.26631 19.9125 1.42259 19.7562C1.57887 19.6 1.66667 19.388 1.66667 19.167C1.66667 17.6199 2.28125 16.1362 3.37521 15.0422C4.46917 13.9482 5.9529 13.3337 7.5 13.3337C9.0471 13.3337 10.5308 13.9482 11.6248 15.0422C12.7188 16.1362 13.3333 17.6199 13.3333 19.167C13.3333 19.388 13.4211 19.6 13.5774 19.7562C13.7337 19.9125 13.9457 20.0003 14.1667 20.0003C14.3877 20.0003 14.5996 19.9125 14.7559 19.7562C14.9122 19.6 15 19.388 15 19.167C14.9978 17.1785 14.2069 15.2722 12.8009 13.8661C11.3948 12.4601 9.48845 11.6692 7.5 11.667Z" fill="white"/>
</svg>
