<svg width="27" height="28" viewBox="0 0 27 28" fill="none" xmlns="http://www.w3.org/2000/svg">
<path d="M21.5003 7.63509H18.917C18.7236 6.6946 18.2118 5.84955 17.468 5.24236C16.7242 4.63517 15.7938 4.30297 14.8337 4.30176L13.167 4.30176C12.2068 4.30297 11.2764 4.63517 10.5326 5.24236C9.78881 5.84955 9.27707 6.6946 9.08366 7.63509H6.50033C6.27931 7.63509 6.06735 7.72289 5.91107 7.87917C5.75479 8.03545 5.66699 8.24741 5.66699 8.46842C5.66699 8.68944 5.75479 8.9014 5.91107 9.05768C6.06735 9.21396 6.27931 9.30176 6.50033 9.30176H7.33366V20.1351C7.33498 21.2398 7.77439 22.2988 8.55551 23.0799C9.33662 23.861 10.3957 24.3004 11.5003 24.3018H16.5003C17.605 24.3004 18.664 23.861 19.4451 23.0799C20.2263 22.2988 20.6657 21.2398 20.667 20.1351V9.30176H21.5003C21.7213 9.30176 21.9333 9.21396 22.0896 9.05768C22.2459 8.9014 22.3337 8.68944 22.3337 8.46842C22.3337 8.24741 22.2459 8.03545 22.0896 7.87917C21.9333 7.72289 21.7213 7.63509 21.5003 7.63509ZM13.167 5.96842H14.8337C15.3506 5.96906 15.8546 6.12957 16.2767 6.42796C16.6987 6.72635 17.0182 7.148 17.1912 7.63509H10.8095C10.9825 7.148 11.3019 6.72635 11.724 6.42796C12.1461 6.12957 12.6501 5.96906 13.167 5.96842ZM19.0003 20.1351C19.0003 20.7981 18.7369 21.434 18.2681 21.9029C17.7993 22.3717 17.1634 22.6351 16.5003 22.6351H11.5003C10.8373 22.6351 10.2014 22.3717 9.73256 21.9029C9.26372 21.434 9.00033 20.7981 9.00033 20.1351V9.30176H19.0003V20.1351Z" fill="#656565"/>
<path d="M12.3333 19.3014C12.5543 19.3014 12.7663 19.2136 12.9226 19.0574C13.0789 18.9011 13.1667 18.6891 13.1667 18.4681V13.4681C13.1667 13.2471 13.0789 13.0351 12.9226 12.8788C12.7663 12.7226 12.5543 12.6348 12.3333 12.6348C12.1123 12.6348 11.9004 12.7226 11.7441 12.8788C11.5878 13.0351 11.5 13.2471 11.5 13.4681V18.4681C11.5 18.6891 11.5878 18.9011 11.7441 19.0574C11.9004 19.2136 12.1123 19.3014 12.3333 19.3014Z" fill="#656565"/>
<path d="M15.6663 19.3014C15.8874 19.3014 16.0993 19.2136 16.2556 19.0574C16.4119 18.9011 16.4997 18.6891 16.4997 18.4681V13.4681C16.4997 13.2471 16.4119 13.0351 16.2556 12.8788C16.0993 12.7226 15.8874 12.6348 15.6663 12.6348C15.4453 12.6348 15.2334 12.7226 15.0771 12.8788C14.9208 13.0351 14.833 13.2471 14.833 13.4681V18.4681C14.833 18.6891 14.9208 18.9011 15.0771 19.0574C15.2334 19.2136 15.4453 19.3014 15.6663 19.3014Z" fill="#656565"/>
</svg>
