<svg width="27" height="28" viewBox="0 0 27 28" fill="none" xmlns="http://www.w3.org/2000/svg">
<path d="M14.8337 20.9684C15.9383 20.9671 16.9974 20.5277 17.7785 19.7466C18.5596 18.9655 18.999 17.9064 19.0003 16.8018V9.50427C19.0016 9.06624 18.916 8.6323 18.7483 8.22762C18.5807 7.82294 18.3343 7.45556 18.0237 7.14677L16.1553 5.27844C15.8465 4.96775 15.4792 4.72144 15.0745 4.55379C14.6698 4.38614 14.2359 4.30048 13.7978 4.30177H9.83366C8.729 4.3031 7.66996 4.74251 6.88884 5.52362C6.10773 6.30474 5.66832 7.36378 5.66699 8.46844V16.8018C5.66832 17.9064 6.10773 18.9655 6.88884 19.7466C7.66996 20.5277 8.729 20.9671 9.83366 20.9684H14.8337ZM7.33366 16.8018V8.46844C7.33366 7.8054 7.59705 7.16951 8.06589 6.70067C8.53473 6.23183 9.17062 5.96844 9.83366 5.96844C9.83366 5.96844 13.9328 5.98011 14.0003 5.98844V7.63511C14.0003 8.07713 14.1759 8.50106 14.4885 8.81362C14.801 9.12618 15.225 9.30177 15.667 9.30177H17.3137C17.322 9.36927 17.3337 16.8018 17.3337 16.8018C17.3337 17.4648 17.0703 18.1007 16.6014 18.5695C16.1326 19.0384 15.4967 19.3018 14.8337 19.3018H9.83366C9.17062 19.3018 8.53473 19.0384 8.06589 18.5695C7.59705 18.1007 7.33366 17.4648 7.33366 16.8018ZM22.3337 10.9684V20.1351C22.3323 21.2398 21.8929 22.2988 21.1118 23.0799C20.3307 23.861 19.2717 24.3004 18.167 24.3018H10.667C10.446 24.3018 10.234 24.214 10.0777 24.0577C9.92146 23.9014 9.83366 23.6895 9.83366 23.4684C9.83366 23.2474 9.92146 23.0355 10.0777 22.8792C10.234 22.7229 10.446 22.6351 10.667 22.6351H18.167C18.83 22.6351 19.4659 22.3717 19.9348 21.9029C20.4036 21.434 20.667 20.7981 20.667 20.1351V10.9684C20.667 10.7474 20.7548 10.5355 20.9111 10.3792C21.0674 10.2229 21.2793 10.1351 21.5003 10.1351C21.7213 10.1351 21.9333 10.2229 22.0896 10.3792C22.2459 10.5355 22.3337 10.7474 22.3337 10.9684Z" fill="#656565"/>
</svg>
