<svg width="90" height="95" viewBox="0 0 90 95" fill="none" xmlns="http://www.w3.org/2000/svg">
<path d="M74.5311 49.3384C75.9089 47.4459 78.4378 45.1028 78.4262 42.5772C78.4164 40.0523 75.8712 39.1672 73.7257 39.4512C71.4134 39.7503 69.6137 41.2998 68.0569 42.9139C66.5835 44.4095 60.9033 51.2425 60.4116 50.7282C59.7537 50.1079 63.3224 45.5178 64.3498 43.877C66.7296 40.041 73.0852 30.9458 73.2779 27.269C73.2994 26.8505 73.2532 26.4393 73.1369 26.0366C73.0223 25.6346 72.8447 25.2605 72.6043 24.9186C72.3629 24.5743 72.0746 24.2808 71.7346 24.0344C71.3972 23.7869 71.0265 23.6038 70.6263 23.4806C67.9053 22.5631 65.7175 24.1426 63.8231 26.3543C61.9287 28.566 53.0999 40.553 52.1061 41.5708C53.2169 37.2235 54.7225 33.0184 56.6212 28.9546C58.1889 25.3739 59.2439 21.6474 59.7862 17.7751C60.2296 14.7705 58.255 10.9466 54.5074 11.733C50.6029 12.5571 48.3404 17.9468 46.9891 21.1676C45.0016 25.9377 41.8082 37.1962 40.7198 36.3258C39.8628 36.2207 41.2068 30.8421 41.6323 28.4414C42.3395 24.4508 44.8514 13.8893 38.493 12.6877C36.7129 12.3513 35.6939 14.2464 35.0276 15.738C32.9913 20.3365 31.7749 25.3146 30.494 30.1401C29.5197 33.8203 28.6046 37.488 27.6274 41.2027C26.9732 39.6632 26.2178 38.1746 25.363 36.7375C24.2372 34.8212 23.0329 32.6967 20.8018 31.9246C20.4409 31.781 20.0662 31.6948 19.6778 31.666C19.29 31.6354 18.9061 31.665 18.5259 31.7503C18.1467 31.8381 17.7874 31.9775 17.4508 32.1717C17.1142 32.366 16.8119 32.6069 16.5471 32.8916C14.1076 36.2108 15.3542 41.0359 16.3778 44.7706C17.1162 47.148 17.6485 49.5715 17.9791 52.0404C18.2349 54.5348 18.2302 57.0541 18.4561 59.5557C18.936 64.9465 22.4253 71.3475 19.266 76.5079C19.1945 76.6226 19.1448 76.7456 19.1207 76.8786C19.0947 77.0108 19.0959 77.1431 19.1199 77.2758C19.1458 77.4092 19.1925 77.5319 19.2656 77.6459C19.3362 77.7611 19.4261 77.8586 19.5336 77.9378C19.6429 78.0177 19.7625 78.0764 19.8912 78.1115C20.0217 78.1473 20.1541 78.1566 20.287 78.1431C20.4224 78.1285 20.5484 78.0893 20.6687 78.027C20.7872 77.964 20.8917 77.883 20.9793 77.7809C24.4517 73.1097 22.5266 67.4198 21.4328 62.3128C20.9862 59.5919 20.7554 56.854 20.7435 54.0961C20.6084 51.2403 20.1658 48.4332 19.4151 45.6764C18.6702 42.9637 17.8537 40.2526 17.9766 37.4275C18.1317 33.8261 19.9977 34.5199 20.8054 35.0936C22.9143 36.5989 24.4103 41.5475 24.7993 42.6038C25.4797 44.4651 25.9138 46.4008 26.4701 48.302C26.4969 48.4275 26.5339 48.5485 26.5852 48.6645C26.6359 48.7825 26.6981 48.8923 26.7729 48.9965C26.8459 49.1 26.9304 49.1954 27.0245 49.282C27.1169 49.3679 27.2196 49.4432 27.3284 49.5082C27.4371 49.5733 27.5519 49.6281 27.6724 49.6683C27.7921 49.7104 27.9168 49.7398 28.0427 49.7549C28.1686 49.7701 28.2952 49.773 28.4223 49.7635C28.5501 49.7522 28.6741 49.729 28.7969 49.6928C28.9179 49.6558 29.0351 49.607 29.1478 49.548C29.2595 49.4866 29.3641 49.4161 29.4613 49.3323C29.5578 49.2504 29.6456 49.1587 29.7245 49.0574C29.8027 48.9579 29.8695 48.8499 29.9262 48.7357C29.981 48.6209 30.0249 48.5019 30.0561 48.378C30.0872 48.254 30.106 48.1295 30.1114 48.0018C30.1168 47.8742 30.1092 47.7478 30.0867 47.6219C30.066 47.4968 30.0334 47.3754 29.9852 47.2564L29.1981 45.0483C32.0132 37.7631 33.3546 29.9545 35.6808 22.516C36.2677 20.6506 36.8883 18.7898 37.6293 16.986C38.0063 16.0103 38.6944 14.8577 39.3683 16.3839C39.7258 17.4133 39.8967 18.471 39.8812 19.5613C40.0626 23.7321 39.0069 27.8559 38.1855 31.9091C37.6984 34.2796 35.8689 40.2217 39.3287 41.1548C43.2002 42.203 45.0807 36.1991 46.1415 33.638C47.9642 29.2458 49.4928 24.7105 51.5621 20.4219C52.306 18.8703 53.1512 16.8453 54.539 15.712C55.9268 14.5787 56.2958 15.9682 56.3781 17.2658C56.393 18.803 56.1678 20.3061 55.7041 21.7714C55.0335 24.2488 54.2409 26.7168 53.349 29.1171C51.593 33.8239 49.4072 38.4629 48.9319 43.5642C48.8343 44.7211 50.078 46.0992 52.3108 44.7987C54.2654 43.6605 63.8579 31.1589 65.3672 29.2021C66.2219 28.1055 69.0445 24.6017 70.1731 26.7869C70.9319 28.2559 69.2503 30.2904 68.5245 31.5896C66.4083 35.3496 64.0565 38.9725 61.8093 42.6547C60.2932 45.1381 58.2383 48.0682 57.8278 51.0312C57.672 52.1112 57.9419 53.0586 59.1732 53.2833C60.7059 53.5618 62.0634 52.5067 63.1319 51.5555C66.1437 48.8884 68.7228 44.7424 72.4035 43.0138C72.9499 42.7584 75.0547 42.0004 75.3002 42.9406C75.3885 43.2697 73.2388 45.9581 72.6471 46.7693C70.792 49.2472 69.0562 51.7901 67.3458 54.3596C63.5026 60.1093 60.1528 66.2715 55.1909 71.202C52.8838 73.3881 50.1889 75.0939 47.6846 77.0971C45.2057 79.2566 43.3085 81.8438 41.9965 84.8601C41.0704 86.7911 44.2225 88.0279 45.1167 86.0658C45.7312 84.6106 46.5177 83.2575 47.4793 82.0035C48.4391 80.7487 49.5404 79.6365 50.7829 78.6625C53.2465 76.8946 55.5697 74.9595 57.7532 72.8553C62.204 68.2943 65.3997 62.807 68.8875 57.4952C70.7149 54.7367 72.5644 51.9971 74.5311 49.3384Z" fill="#3B6A75"/>
<path d="M32.7852 50.6361C31.1476 49.3296 29.2204 51.9512 30.8778 53.2549C33.3333 55.1411 35.4171 57.3773 37.1263 59.9605C38.4982 62.0953 39.2318 64.5337 40.155 66.8822C40.6692 68.1939 42.4422 67.4605 42.3725 66.2222C41.9702 59.7211 37.6595 54.5197 32.7852 50.6361Z" fill="#3B6A75"/>
<path d="M67.9324 69.8531C64.0327 74.493 59.5537 78.4824 54.4944 81.8186C53.4951 82.4556 54.655 83.9101 55.6414 83.2577C58.2466 81.6052 60.6542 79.7006 62.8617 77.545C65.0692 75.3894 67.03 73.0276 68.7452 70.4621C68.816 70.3493 68.8396 70.2287 68.8149 70.0978C68.7901 69.9669 68.7259 69.8626 68.6184 69.7834C68.5134 69.7031 68.3938 69.6715 68.2617 69.6832C68.1306 69.6974 68.0211 69.7534 67.9324 69.8531Z" fill="#3B6A75"/>
<mask id="mask0_7686_21145" style="mask-type:luminance" maskUnits="userSpaceOnUse" x="60" y="75" width="9" height="12">
<path d="M63.2676 75.5452L68.7433 77.661L65.502 86.0494L60.0263 83.9335L63.2676 75.5452Z" fill="white"/>
</mask>
<g mask="url(#mask0_7686_21145)">
<path d="M67.4365 77.7652C66.3586 78.4429 65.4326 79.3341 64.4237 80.1096C63.4159 80.8877 62.2291 81.4521 61.2584 82.2696C61.1633 82.3479 61.0835 82.4406 61.0217 82.5464C60.9599 82.6522 60.9181 82.7658 60.8964 82.8871C60.8746 83.0084 60.8757 83.1302 60.8978 83.2517C60.9205 83.3714 60.9646 83.4846 61.0282 83.5908C61.09 83.6963 61.1704 83.7859 61.2681 83.8634C61.364 83.9402 61.4701 83.9959 61.5869 84.0347C61.7044 84.0718 61.8253 84.0892 61.9473 84.0819C62.0705 84.0772 62.1879 84.0494 62.3026 84.0016C63.6277 83.388 64.8063 82.5631 65.8405 81.5274C66.8861 80.6678 67.7151 79.6323 68.3304 78.4244C68.5979 77.8457 67.8736 77.4947 67.4365 77.7652Z" fill="#3B6A75"/>
</g>
<path d="M28.4308 17.7042C28.4263 13.7252 30.3966 10.8084 33.0622 8.04113C33.3346 7.75306 32.9228 7.37845 32.6218 7.48601C28.6901 8.98163 26.5967 13.4952 26.5961 17.5141C26.5977 18.6905 28.4386 18.8914 28.4308 17.7042Z" fill="#3B6A75"/>
<path d="M25.0506 14.2701C25.4477 12.6955 25.9858 11.1731 26.6668 9.69764C27.384 8.2801 28.4176 7.04548 29.0364 5.57944C29.0732 5.47862 29.0782 5.37382 29.0523 5.26757C29.0275 5.16385 28.975 5.07241 28.8969 4.99831C28.8188 4.92421 28.7266 4.87601 28.6194 4.85552C28.5141 4.83574 28.4098 4.84567 28.3103 4.88671C25.3607 6.43962 23.5021 10.6486 23.0721 13.8027C23.0709 13.9194 23.0915 14.0341 23.1301 14.1452C23.1687 14.2564 23.2239 14.3572 23.2968 14.4503C23.3696 14.5433 23.4568 14.6209 23.5558 14.6842C23.6547 14.7476 23.7607 14.7927 23.8763 14.8185C23.9911 14.8462 24.105 14.8546 24.223 14.8416C24.3403 14.8305 24.453 14.7987 24.5579 14.7493C24.6653 14.6987 24.7617 14.6334 24.8459 14.5509C24.9294 14.4702 24.9993 14.3758 25.0506 14.2701Z" fill="#3B6A75"/>
</svg>
