<svg width="26" height="28" viewBox="0 0 26 28" fill="none" xmlns="http://www.w3.org/2000/svg">
<path d="M13 11.4328V23.3328M13 11.4328C13 9.44465 13.1139 7.25213 11.2625 6.21449C10.5819 5.83301 9.69067 5.83301 7.90869 5.83301H5.15111C3.84055 5.83301 3.45456 6.34237 3.45456 7.69979V17.9665C3.45456 18.6288 3.41662 19.3602 4.03354 19.706C4.26019 19.833 4.55654 19.833 5.14937 19.833H8.15381C10.675 19.833 11.6114 21.042 13 23.3328M13 11.4328C13 9.4451 12.8858 7.25201 14.737 6.21449C15.4176 5.83301 16.3087 5.83301 18.0907 5.83301H20.8483C22.1585 5.83301 22.5455 6.34218 22.5455 7.69979V17.9665C22.5455 18.6279 22.583 19.3606 21.9667 19.706C21.7401 19.833 21.4435 19.833 20.8507 19.833H17.8463C15.3246 19.833 14.3888 21.0413 13 23.3328" stroke="#656565" stroke-width="1.5" stroke-linecap="round" stroke-linejoin="round"/>
</svg>
