<svg width="20" height="20" viewBox="0 0 20 20" fill="none" xmlns="http://www.w3.org/2000/svg">
<path d="M19.0273 7.64472L15.7942 4.4117C15.637 4.25988 15.4265 4.17587 15.208 4.17777C14.9894 4.17966 14.7804 4.26732 14.6259 4.42185C14.4713 4.57638 14.3837 4.78543 14.3818 5.00396C14.3799 5.22249 14.4639 5.43303 14.6157 5.59022L17.8487 8.82324C17.9448 8.9212 18.0287 9.03033 18.0988 9.14829C18.0863 9.14829 18.0763 9.14163 18.0638 9.14163L4.99167 9.1683C4.77062 9.1683 4.55863 9.25611 4.40232 9.41241C4.24601 9.56872 4.1582 9.78071 4.1582 10.0018C4.1582 10.2228 4.24601 10.4348 4.40232 10.5911C4.55863 10.7474 4.77062 10.8352 4.99167 10.8352L18.0588 10.8086C18.0821 10.8086 18.1013 10.7969 18.1238 10.7952C18.0499 10.9362 17.9561 11.0659 17.8454 11.1803L14.6124 14.4133C14.5328 14.4902 14.4693 14.5822 14.4256 14.6838C14.3819 14.7855 14.3589 14.8949 14.358 15.0056C14.357 15.1162 14.3781 15.226 14.42 15.3284C14.4619 15.4308 14.5238 15.5239 14.6021 15.6022C14.6803 15.6804 14.7734 15.7423 14.8758 15.7842C14.9782 15.8261 15.088 15.8472 15.1986 15.8462C15.3093 15.8453 15.4187 15.8223 15.5204 15.7786C15.6221 15.7349 15.714 15.6714 15.7909 15.5918L19.0239 12.3588C19.6489 11.7336 20 10.8858 20 10.0018C20 9.11774 19.6489 8.26991 19.0239 7.64472H19.0273Z" fill="#656565"/>
<path d="M5.83427 18.3363H4.16734C3.50419 18.3363 2.8682 18.0728 2.39929 17.6039C1.93037 17.135 1.66693 16.499 1.66693 15.8359V4.16734C1.66693 3.50419 1.93037 2.8682 2.39929 2.39929C2.8682 1.93037 3.50419 1.66693 4.16734 1.66693H5.83427C6.05532 1.66693 6.26732 1.57912 6.42362 1.42282C6.57993 1.26651 6.66774 1.05452 6.66774 0.833467C6.66774 0.612418 6.57993 0.400422 6.42362 0.244117C6.26732 0.0878115 6.05532 0 5.83427 0L4.16734 0C3.0625 0.00132343 2.00329 0.440806 1.22205 1.22205C0.440806 2.00329 0.00132343 3.0625 0 4.16734L0 15.8359C0.00132343 16.9407 0.440806 17.9999 1.22205 18.7812C2.00329 19.5624 3.0625 20.0019 4.16734 20.0032H5.83427C6.05532 20.0032 6.26732 19.9154 6.42362 19.7591C6.57993 19.6028 6.66774 19.3908 6.66774 19.1697C6.66774 18.9487 6.57993 18.7367 6.42362 18.5804C6.26732 18.4241 6.05532 18.3363 5.83427 18.3363Z" fill="#656565"/>
</svg>
