<svg width="20" height="17" viewBox="0 0 20 17" fill="none" xmlns="http://www.w3.org/2000/svg">
<path d="M17.5093 8.8604V7.65C17.5093 5.62109 16.7182 3.67529 15.3099 2.24063C13.9016 0.80598 11.9916 0 10 0C8.0084 0 6.09836 0.80598 4.69009 2.24063C3.28181 3.67529 2.49065 5.62109 2.49065 7.65V8.8604C1.61553 9.25296 0.899335 9.93986 0.461975 10.8061C0.0246145 11.6724 -0.107368 12.6654 0.0881227 13.6189C0.283613 14.5724 0.794711 15.4286 1.53585 16.0441C2.27699 16.6596 3.20319 16.9971 4.15939 17C4.60197 17 5.02642 16.8209 5.33937 16.5021C5.65233 16.1833 5.82814 15.7509 5.82814 15.3V10.2C5.82814 9.74913 5.65233 9.31673 5.33937 8.99792C5.02642 8.67911 4.60197 8.5 4.15939 8.5V7.65C4.15939 6.07196 4.77474 4.55856 5.87007 3.44271C6.96539 2.32687 8.45098 1.7 10 1.7C11.549 1.7 13.0346 2.32687 14.1299 3.44271C15.2253 4.55856 15.8406 6.07196 15.8406 7.65V8.5C15.398 8.5 14.9736 8.67911 14.6606 8.99792C14.3477 9.31673 14.1719 9.74913 14.1719 10.2V15.3H11.6687C11.4475 15.3 11.2352 15.3896 11.0788 15.549C10.9223 15.7084 10.8344 15.9246 10.8344 16.15C10.8344 16.3754 10.9223 16.5916 11.0788 16.751C11.2352 16.9104 11.4475 17 11.6687 17H15.8406C16.7968 16.9971 17.723 16.6596 18.4641 16.0441C19.2053 15.4286 19.7164 14.5724 19.9119 13.6189C20.1074 12.6654 19.9754 11.6724 19.538 10.8061C19.1007 9.93986 18.3845 9.25296 17.5093 8.8604ZM4.15939 15.3C3.49553 15.3 2.85885 15.0313 2.38942 14.5531C1.92 14.0749 1.65628 13.4263 1.65628 12.75C1.65628 12.0737 1.92 11.4251 2.38942 10.9469C2.85885 10.4687 3.49553 10.2 4.15939 10.2V15.3ZM15.8406 15.3V10.2C16.5045 10.2 17.1412 10.4687 17.6106 10.9469C18.08 11.4251 18.3437 12.0737 18.3437 12.75C18.3437 13.4263 18.08 14.0749 17.6106 14.5531C17.1412 15.0313 16.5045 15.3 15.8406 15.3Z" fill="#656565"/>
</svg>
