<svg width="72" height="70" viewBox="0 0 72 70" fill="none" xmlns="http://www.w3.org/2000/svg">
<path d="M8.10182 11.6042C3.90543 17.1468 2.25611 24.4015 1.39042 31.4792C0.66407 37.4184 0.423736 43.5861 2.17114 49.2758C4.75365 57.6827 11.5486 64.128 19.2694 67.2678C26.9902 70.4077 35.5413 70.5404 43.7005 69.1758C58.1968 66.7519 70.2437 52.9478 71.0326 37.1516C72.1921 13.9328 50.7921 -2.34543 30.4884 0.277029C22.0864 1.36198 13.4334 4.56131 8.10182 11.6042Z" fill="#6797A0" fill-opacity="0.75"/>
<path d="M56.0725 11.2968C53.3652 5.19837 43.9426 2.7523 38.2425 3.65937C37.3511 3.80138 37.6978 5.10156 38.4372 5.20082C41.7912 5.65141 44.7597 6.28822 47.8215 7.89108C50.3292 9.20353 52.1489 11.5282 54.5975 12.878C55.5952 13.4274 56.5366 12.3419 56.0725 11.2968Z" fill="#E1F4F8"/>
<path d="M58.3819 14.4552C57.6599 14.3697 57.3288 15.4547 57.8075 15.9421C58.7951 16.9484 59.9055 17.7135 60.7896 18.8505C61.7316 20.0618 62.2457 21.5541 63.1915 22.7766C63.797 23.5589 64.8379 22.8557 64.8947 22.0204C65.1278 18.5906 61.4475 14.8193 58.3819 14.4552Z" fill="#E1F4F8"/>
<path d="M43.7 69.175C53.3008 67.5697 61.8237 60.9701 66.7168 52.1082C60.303 56.8057 52.7842 59.7289 45.0347 60.1176C32.6961 60.7362 20.0506 54.6093 12.975 43.7583C6.57534 33.9441 5.25131 20.4653 9.80796 9.61279C9.21125 10.2427 8.63542 10.8992 8.10182 11.6043C3.90543 17.147 2.25611 24.4016 1.39042 31.4794C0.66407 37.4186 0.423736 43.5863 2.17114 49.2759C4.75365 57.6828 11.5486 64.1282 19.2694 67.268C26.9902 70.4069 35.5413 70.5396 43.7 69.175Z" fill="#719DA6"/>
<path d="M20.754 22.7511C15.4918 23.1943 16.6891 30.8824 21.6779 31.1782C26.6662 31.4745 27.7751 22.16 20.754 22.7511Z" fill="#2C3742"/>
<path d="M20.7022 24.245C19.6175 23.1473 18.125 25.1605 19.4417 25.898C20.4618 26.4695 21.5615 25.1147 20.7022 24.245Z" fill="white"/>
<path d="M47.0741 22.7511C41.8124 23.1943 43.0093 30.8824 47.998 31.1782C52.9868 31.4745 54.0952 22.16 47.0741 22.7511Z" fill="#2C3742"/>
<path d="M47.1943 24.245C46.1097 23.1473 44.6172 25.1605 45.9339 25.898C46.9535 26.4695 48.0537 25.1147 47.1943 24.245Z" fill="white"/>
<path d="M43.6472 45.7453C41.7852 42.3459 38.7822 40.4104 34.9461 41.0025C31.8169 41.4856 28.3988 43.5311 27.5088 46.7428C27.402 47.129 27.9468 47.5152 28.2182 47.1609C29.749 45.1605 31.3848 43.9341 33.7779 43.1135C37.9461 41.6836 39.9208 43.9385 42.8635 46.3575C43.2898 46.7069 43.9365 46.2735 43.6472 45.7453Z" fill="#2C3742"/>
</svg>
