<svg width="71" height="70" viewBox="0 0 71 70" fill="none" xmlns="http://www.w3.org/2000/svg">
<path d="M7.25807 11.6042C3.06168 17.1468 1.41236 24.4015 0.546665 31.4792C-0.17968 37.4184 -0.420014 43.5861 1.32739 49.2757C3.9099 57.6826 10.7048 64.128 18.4256 67.2678C26.1464 70.4077 34.6975 70.5404 42.8568 69.1758C57.3531 66.7519 69.3999 52.9478 70.1889 37.1516C71.3483 13.9328 49.9483 -2.34543 29.6447 0.277029C21.2427 1.36198 12.5896 4.56131 7.25807 11.6042Z" fill="#9DBDC2" fill-opacity="0.75"/>
<path d="M55.2287 11.2968C52.5214 5.19835 43.0989 2.7523 37.3988 3.65937C36.5074 3.80138 36.854 5.10155 37.5935 5.20081C40.948 5.6514 43.916 6.28822 46.9777 7.89108C49.4854 9.20353 51.3052 11.5282 53.7537 12.878C54.7514 13.4274 55.6929 12.3419 55.2287 11.2968Z" fill="#E1F4F8"/>
<path d="M57.5391 14.4553C56.8172 14.3693 56.486 15.4547 56.9648 15.9422C57.9523 16.9485 59.0627 17.7136 59.9469 18.8506C60.8888 20.0618 61.403 21.5541 62.3488 22.7767C62.9542 23.5589 63.9952 22.8558 64.052 22.0204C64.2845 18.5907 60.6048 14.8194 57.5391 14.4553Z" fill="#E1F4F8"/>
<path d="M42.8568 69.175C52.4575 67.5697 60.9804 60.9701 65.8736 52.1082C59.4598 56.8057 51.9409 59.7289 44.1915 60.1176C31.8528 60.7362 19.2073 54.6093 12.1313 43.7583C5.73159 33.9441 4.40756 20.4653 8.96421 9.61279C8.3675 10.2427 7.79167 10.8992 7.25808 11.6043C3.06168 17.147 1.41236 24.4016 0.546665 31.4794C-0.17968 37.4186 -0.420014 43.5863 1.32739 49.2759C3.9099 57.6828 10.7048 64.1281 18.4256 67.268C26.1464 70.4069 34.6975 70.5396 42.8568 69.175Z" fill="#A3C1C6"/>
<path d="M39.8284 41.3182C37.981 42.2184 36.5181 43.3102 34.3954 43.5151C32.3582 43.7117 30.4199 42.7682 28.7463 41.7157C28.4113 41.5049 27.9263 41.9427 28.1802 42.2887C30.9861 46.1145 38.335 47.1061 40.8883 42.3909C41.2792 41.6695 40.5155 40.9836 39.8284 41.3182Z" fill="#2C3742"/>
<path d="M20.8573 23.3166C15.5956 23.7598 16.7925 31.4483 21.7812 31.7436C26.77 32.0394 27.8784 22.725 20.8573 23.3166Z" fill="#2C3742"/>
<path d="M20.8057 24.8104C19.721 23.7127 18.2285 25.7259 19.5453 26.4634C20.5649 27.0349 21.6646 25.6802 20.8057 24.8104Z" fill="white"/>
<path d="M47.1776 23.3166C41.9159 23.7598 43.1128 31.4483 48.1015 31.7436C53.0898 32.0394 54.1988 22.725 47.1776 23.3166Z" fill="#2C3742"/>
<path d="M47.2959 24.8104C46.2113 23.7127 44.7187 25.7259 46.0355 26.4634C47.0551 27.0349 48.1553 25.6802 47.2959 24.8104Z" fill="white"/>
</svg>
