<svg width="71" height="70" viewBox="0 0 71 70" fill="none" xmlns="http://www.w3.org/2000/svg">
<path d="M7.87526 11.6042C3.67887 17.1468 2.02954 24.4015 1.16385 31.4792C0.437507 37.4184 0.197173 43.5861 1.94458 49.2757C4.52708 57.6826 11.322 64.128 19.0428 67.2678C26.7636 70.4077 35.3147 70.5404 43.4739 69.1758C57.9703 66.7519 70.0171 52.9478 70.8061 37.1516C71.9655 13.9328 50.5655 -2.34543 30.2618 0.277029C21.8598 1.36198 13.2068 4.56131 7.87526 11.6042Z" fill="#B1CACE" fill-opacity="0.65"/>
<path d="M55.8459 11.2968C53.1386 5.19835 43.716 2.7523 38.016 3.65937C37.1246 3.80138 37.4712 5.10155 38.2107 5.20081C41.5647 5.6514 44.5332 6.28822 47.5949 7.89108C50.1026 9.20353 51.9224 11.5282 54.3709 12.878C55.3686 13.4274 56.3101 12.3419 55.8459 11.2968Z" fill="#E1F4F8"/>
<path d="M58.1554 14.4553C57.4334 14.3693 57.1023 15.4547 57.581 15.9422C58.5685 16.9485 59.6789 17.7136 60.5631 18.8506C61.505 20.0618 62.0192 21.5541 62.965 22.7767C63.5704 23.5589 64.6114 22.8558 64.6682 22.0204C64.9012 18.5907 61.221 14.8194 58.1554 14.4553Z" fill="#E1F4F8"/>
<path d="M43.4735 69.175C53.0742 67.5697 61.5971 60.9701 66.4902 52.1082C60.0765 56.8057 52.5576 59.7289 44.8082 60.1176C32.4695 60.7362 19.824 54.6093 12.7485 43.7583C6.34877 33.9441 5.02475 20.4653 9.5814 9.61279C8.98469 10.2427 8.40885 10.8992 7.87526 11.6043C3.67887 17.147 2.02954 24.4016 1.16385 31.4794C0.437507 37.4186 0.197173 43.5863 1.94458 49.2759C4.52708 57.6828 11.322 64.1281 19.0428 67.268C26.7636 70.4069 35.3147 70.5396 43.4735 69.175Z" fill="#B5CDD1" fill-opacity="0.8"/>
<path d="M19.8011 22.13C15.7659 21.7934 12.3308 25.1898 11.771 29.1429C11.6821 29.7713 12.3259 30.2249 12.8353 29.7699C14.8735 27.9483 15.8649 25.1077 18.981 24.8836C22.0228 24.665 23.109 28.1321 24.6117 30.044C25.2511 30.8573 26.8159 30.2077 26.695 29.1709C26.31 25.858 23.2075 22.414 19.8011 22.13Z" fill="#2C3742"/>
<path d="M50.0773 22.13C54.113 21.7934 57.5476 25.1898 58.1074 29.1429C58.1963 29.7713 57.5525 30.2249 57.0432 29.7699C55.0049 27.9483 54.0135 25.1077 50.8974 24.8836C47.8556 24.665 46.7695 28.1321 45.2668 30.044C44.6278 30.8573 43.0625 30.2077 43.1834 29.1709C43.5684 25.858 46.6709 22.414 50.0773 22.13Z" fill="#2C3742"/>
<path d="M23.7316 43.8803C23.3182 46.2835 26.1185 52.9021 34.5644 52.9992C43.0103 53.0963 45.8563 44.4625 45.7644 43.5894C45.6728 42.7162 23.9151 42.8133 23.7316 43.8803Z" fill="#2C3742"/>
</svg>
