<svg width="71" height="70" viewBox="0 0 71 70" fill="none" xmlns="http://www.w3.org/2000/svg">
<path d="M7.65867 11.6041C3.46229 17.1468 1.81294 24.4015 0.947248 31.4792C0.220419 37.4184 -0.0194135 43.5861 1.72799 49.2757C4.31049 57.6826 11.1054 64.128 18.8262 67.2678C26.547 70.4077 35.098 70.5404 43.2572 69.1758C57.7535 66.7519 69.8003 52.9478 70.5893 37.1516C71.7487 13.9328 50.3488 -2.34543 30.0452 0.277029C21.6432 1.36198 12.9902 4.5613 7.65867 11.6041Z" fill="#85ACB3" fill-opacity="0.75"/>
<path d="M55.6289 11.2968C52.9216 5.19836 43.4991 2.7523 37.799 3.65937C36.9076 3.80138 37.2548 5.10156 37.9937 5.20081C41.3482 5.6514 44.3162 6.28822 47.3779 7.89108C49.8857 9.20353 51.7054 11.5282 54.1539 12.878C55.1517 13.4279 56.0931 12.3419 55.6289 11.2968Z" fill="#E1F4F8"/>
<path d="M57.9395 14.4552C57.2176 14.3697 56.8864 15.4547 57.3652 15.9421C58.3527 16.9484 59.4631 17.7135 60.3473 18.8505C61.2892 20.0618 61.8033 21.5541 62.7491 22.7766C63.3546 23.5589 64.3956 22.8557 64.4524 22.0204C64.6849 18.5901 61.0047 14.8193 57.9395 14.4552Z" fill="#E1F4F8"/>
<path d="M43.257 69.1755C52.8578 67.5702 61.3806 60.9706 66.2738 52.1087C59.86 56.8062 52.3412 59.7294 44.5917 60.1181C32.2531 60.7367 19.6077 54.6098 12.5317 43.7588C6.13198 33.9446 4.80795 20.4657 9.36459 9.61328C8.76788 10.2432 8.19206 10.8992 7.65847 11.6043C3.46209 17.147 1.81274 24.4016 0.947048 31.4794C0.220705 37.4186 -0.0196135 43.5863 1.72779 49.2759C4.31029 57.6828 11.1052 64.1281 18.826 67.268C26.5468 70.4069 35.0978 70.5396 43.257 69.1755Z" fill="#8DB1B8"/>
<path d="M29.2222 25.1004C27.0199 27.1254 26.0823 29.5832 23.0614 30.7719C19.0015 32.3688 15.6256 29.8402 13.381 26.691C13.0688 26.2527 12.1478 26.3225 12.2342 27.0055C12.8076 31.5586 17.457 34.0021 21.631 33.9722C25.5764 33.9437 31.0118 30.1139 31.0342 25.8601C31.039 24.8872 29.8913 24.4852 29.2222 25.1004Z" fill="#2C3742"/>
<path d="M43.248 25.1004C45.4503 27.1254 46.3879 29.5832 49.4088 30.7719C53.4688 32.3688 56.8446 29.8402 59.0892 26.691C59.4014 26.2527 60.3224 26.3225 60.2365 27.0055C59.6631 31.5586 55.0137 34.0021 50.8397 33.9722C46.8943 33.9437 41.4589 30.1139 41.4365 25.8601C41.4312 24.8872 42.579 24.4852 43.248 25.1004Z" fill="#2C3742"/>
<path d="M41.4539 46.5402C39.7997 47.2026 38.6369 48.2581 36.7506 48.4099C34.9236 48.5568 33.5214 47.6414 31.8716 47.0886C31.4909 46.9613 31.1496 47.4316 31.3564 47.7672C33.4228 51.1228 40.3571 51.1915 42.3171 47.6763C42.6182 47.1358 42.1113 46.2768 41.4539 46.5402Z" fill="#2C3742"/>
</svg>
