<svg width="71" height="70" viewBox="0 0 71 70" fill="none" xmlns="http://www.w3.org/2000/svg">
<path d="M7.46531 11.6042C3.26893 17.1468 1.61958 24.4015 0.753889 31.4792C0.02706 37.4184 -0.212773 43.5861 1.53463 49.2757C4.11713 57.6826 10.912 64.128 18.6328 67.2678C26.3536 70.4077 34.9046 70.5404 43.0639 69.1758C57.5601 66.7519 69.6069 52.9478 70.3959 37.1516C71.5554 13.9328 50.1554 -2.34543 29.8518 0.277029C21.4498 1.36198 12.7968 4.56131 7.46531 11.6042Z" fill="#417D88" fill-opacity="0.75"/>
<path d="M55.4356 11.2973C52.7283 5.19884 43.3057 2.75279 37.6057 3.65986C36.7142 3.80187 37.0614 5.10204 37.8004 5.2013C41.1548 5.65189 44.1229 6.28871 47.1846 7.89157C49.6923 9.20402 51.5121 11.5287 53.9606 12.8785C54.9583 13.4279 55.8997 12.3424 55.4356 11.2973Z" fill="#E1F4F8"/>
<path d="M57.7472 14.4555C57.0252 14.3695 56.694 15.455 57.1728 15.9424C58.1603 16.9487 59.2707 17.7138 60.1549 18.8508C61.0968 20.0621 61.6109 21.5544 62.5567 22.7769C63.1622 23.5592 64.2032 22.856 64.26 22.0207C64.4925 18.5909 60.8123 14.8196 57.7472 14.4555Z" fill="#E1F4F8"/>
<path d="M43.0637 69.175C52.6644 67.5697 61.1873 60.9701 66.0804 52.1082C59.6666 56.8057 52.1478 59.7289 44.3984 60.1176C32.0598 60.7362 19.4143 54.6093 12.3383 43.7583C5.93862 33.9441 4.61459 20.4653 9.17123 9.61279C8.57452 10.2427 7.9987 10.8992 7.46511 11.6043C3.26873 17.147 1.61938 24.4016 0.753689 31.4794C0.0273454 37.4186 -0.212973 43.5863 1.53443 49.2759C4.11693 57.6828 10.9118 64.1281 18.6326 67.268C26.3534 70.4069 34.9044 70.5396 43.0637 69.175Z" fill="#417D88"/>
<path d="M29.5733 23.2151C29.5073 22.4014 28.5751 22.165 28.1109 22.8142C26.2786 25.3767 25.5794 27.7898 22.7236 29.571C19.8852 31.3419 15.7854 31.5684 12.5936 30.9415C12.1231 30.8491 11.7905 31.5046 12.2532 31.7581C15.2776 33.4116 19.8177 33.2195 22.9333 31.8004C26.0358 30.3877 29.8797 27.0046 29.5733 23.2151Z" fill="#2C3742"/>
<path d="M40.7721 23.2151C40.8382 22.4014 41.7704 22.165 42.2345 22.8142C44.0669 25.3767 44.7661 27.7898 47.6219 29.571C50.4603 31.3419 54.56 31.5684 57.7519 30.9415C58.2223 30.8491 58.5549 31.5046 58.0922 31.7581C55.0679 33.4116 50.5278 33.2195 47.4122 31.8004C44.3097 30.3877 40.4653 27.0046 40.7721 23.2151Z" fill="#2C3742"/>
<path d="M55.1963 54.2911C48.6276 37.6989 24.047 36.7162 16.0281 52.4701C15.7606 52.9953 16.4767 53.6425 16.8782 53.1339C27.6559 39.4698 43.9729 40.6992 53.2566 55.1191C53.8805 56.0876 55.6638 55.4719 55.1963 54.2911Z" fill="#2C3742"/>
</svg>
