<svg width="36" height="36" viewBox="0 0 36 36" fill="none" xmlns="http://www.w3.org/2000/svg">
<path d="M18 28.125C9.255 28.125 5.145 18.84 4.965 18.45C4.90559 18.3074 4.875 18.1545 4.875 18C4.875 17.8455 4.90559 17.6926 4.965 17.55C5.145 17.16 9.255 7.875 18 7.875C26.745 7.875 30.855 17.16 31.035 17.55C31.0944 17.6926 31.125 17.8455 31.125 18C31.125 18.1545 31.0944 18.3074 31.035 18.45C30.855 18.84 26.745 28.125 18 28.125ZM7.245 18C8.13 19.725 11.745 25.875 18 25.875C24.255 25.875 27.87 19.725 28.755 18C27.87 16.275 24.255 10.125 18 10.125C11.745 10.125 8.13 16.275 7.245 18Z" fill="black"/>
<path d="M18 22.875C17.0358 22.875 16.0933 22.5891 15.2916 22.0534C14.4899 21.5177 13.8651 20.7564 13.4961 19.8656C13.1271 18.9748 13.0306 17.9946 13.2187 17.0489C13.4068 16.1033 13.8711 15.2346 14.5529 14.5529C15.2346 13.8711 16.1033 13.4068 17.0489 13.2187C17.9946 13.0306 18.9748 13.1271 19.8656 13.4961C20.7564 13.8651 21.5177 14.4899 22.0534 15.2916C22.5891 16.0933 22.875 17.0358 22.875 18C22.871 19.2917 22.3562 20.5294 21.4428 21.4428C20.5294 22.3562 19.2917 22.871 18 22.875ZM18 15.375C17.4808 15.375 16.9733 15.529 16.5416 15.8174C16.11 16.1058 15.7735 16.5158 15.5748 16.9955C15.3761 17.4751 15.3242 18.0029 15.4254 18.5121C15.5267 19.0213 15.7767 19.489 16.1438 19.8562C16.511 20.2233 16.9787 20.4733 17.4879 20.5746C17.9971 20.6759 18.5249 20.6239 19.0045 20.4252C19.4842 20.2265 19.8942 19.8901 20.1826 19.4584C20.471 19.0267 20.625 18.5192 20.625 18C20.6211 17.305 20.3432 16.6396 19.8518 16.1482C19.3604 15.6568 18.695 15.3789 18 15.375Z" fill="black"/>
</svg>
