<svg width="36" height="36" viewBox="0 0 36 36" fill="none" xmlns="http://www.w3.org/2000/svg">
<path d="M6.80013 17.7718L6.68304 18L6.80013 18.2282C7.25527 19.1154 8.40941 21.1365 10.2595 22.9422C12.1108 24.749 14.6967 26.375 18 26.375C21.3033 26.375 23.8892 24.749 25.7405 22.9422C27.5906 21.1365 28.7447 19.1154 29.1999 18.2282L29.317 18L29.1999 17.7718C28.7447 16.8846 27.5906 14.8635 25.7405 13.0578C23.8892 11.251 21.3033 9.625 18 9.625C14.6967 9.625 12.1108 11.251 10.2595 13.0578C8.40941 14.8635 7.25527 16.8846 6.80013 17.7718ZM18 27.625C13.8211 27.625 10.7317 25.4099 8.64148 23.0984C6.61206 20.8541 5.5661 18.5627 5.42889 18.2621C5.42697 18.2579 5.42522 18.2541 5.42365 18.2507C5.39153 18.171 5.375 18.0859 5.375 18C5.375 17.9141 5.39153 17.829 5.42365 17.7493C5.42522 17.7459 5.42697 17.7421 5.42889 17.7379C5.5661 17.4373 6.61206 15.1459 8.64148 12.9016C10.7317 10.5901 13.8211 8.375 18 8.375C22.1789 8.375 25.2683 10.5901 27.3585 12.9016C29.3879 15.1459 30.4339 17.4373 30.5711 17.7379C30.573 17.7421 30.5748 17.7459 30.5763 17.7493C30.6085 17.829 30.625 17.9141 30.625 18C30.625 18.0859 30.6085 18.171 30.5763 18.2507C30.5748 18.2541 30.573 18.2579 30.5711 18.2621C30.4339 18.5627 29.3879 20.8541 27.3585 23.0984C25.2683 25.4099 22.1789 27.625 18 27.625Z" fill="black" stroke="black"/>
<path d="M18 22.875C17.0358 22.875 16.0933 22.5891 15.2916 22.0534C14.4899 21.5177 13.8651 20.7564 13.4961 19.8656C13.1271 18.9748 13.0306 17.9946 13.2187 17.0489C13.4068 16.1033 13.8711 15.2346 14.5529 14.5529C15.2346 13.8711 16.1033 13.4068 17.0489 13.2187C17.9946 13.0306 18.9748 13.1271 19.8656 13.4961C20.7564 13.8651 21.5177 14.4899 22.0534 15.2916C22.5891 16.0933 22.875 17.0358 22.875 18C22.871 19.2917 22.3562 20.5294 21.4428 21.4428C20.5294 22.3562 19.2917 22.871 18 22.875ZM18 15.375C17.4808 15.375 16.9733 15.529 16.5416 15.8174C16.11 16.1058 15.7735 16.5158 15.5748 16.9955C15.3761 17.4751 15.3242 18.0029 15.4254 18.5121C15.5267 19.0213 15.7767 19.489 16.1438 19.8562C16.511 20.2233 16.9787 20.4733 17.4879 20.5746C17.9971 20.6759 18.5249 20.6239 19.0045 20.4252C19.4842 20.2265 19.8942 19.8901 20.1826 19.4584C20.471 19.0267 20.625 18.5192 20.625 18C20.6211 17.305 20.3432 16.6396 19.8518 16.1482C19.3604 15.6568 18.695 15.3789 18 15.375Z" fill="black"/>
<line x1="4.6247" y1="7.21913" x2="31.1742" y2="28.4588" stroke="black" stroke-width="2"/>
</svg>
