<svg width="23" height="22" viewBox="0 0 23 22" fill="none" xmlns="http://www.w3.org/2000/svg">
  <path d="M19.9609 11.7427C20.125 11.3861 20.125 10.934 20.125 10.0297C20.125 9.12552 20.125 8.67341 19.9609 8.31678C19.742 7.84127 19.3223 7.46348 18.7939 7.26652C18.3977 7.1188 17.8953 7.1188 16.8906 7.1188H10.6375C9.42989 7.1188 8.82608 7.1188 8.36483 7.33031C7.95911 7.51637 7.62924 7.81325 7.42252 8.1784C7.1875 8.59352 7.1875 9.13695 7.1875 10.2238V15.8516C7.1875 16.7558 7.1875 17.2079 7.35164 17.5646C7.57048 18.0401 7.99025 18.4179 8.51859 18.6148C8.91485 18.7625 9.41719 18.7625 10.4219 18.7625C11.4266 18.7625 11.9289 18.7625 12.3252 18.6148M19.9609 11.7427C19.742 12.2182 19.3223 12.596 18.7939 12.793C18.3977 12.9407 17.8953 12.9407 16.8906 12.9407C15.8859 12.9407 15.3836 12.9407 14.9873 13.0884C14.459 13.2854 14.0392 13.6631 13.8204 14.1387C13.6563 14.4953 13.6562 14.9474 13.6562 15.8516C13.6562 16.7558 13.6563 17.2079 13.4921 17.5646C13.2733 18.0401 12.8535 18.4179 12.3252 18.6148M19.9609 11.7427C18.914 14.9924 16.1243 17.5519 12.5343 18.5563L12.3252 18.6148M15.8125 7.1188L15.8125 6.34255C15.8125 5.2557 15.8125 4.71227 15.5775 4.29715C15.3708 3.932 15.0409 3.63512 14.6352 3.44906C14.1739 3.23755 13.5701 3.23755 12.3625 3.23755H6.325C5.11739 3.23755 4.51358 3.23755 4.05233 3.44906C3.64661 3.63512 3.31674 3.932 3.11002 4.29715C2.875 4.71227 2.875 5.2557 2.875 6.34255V11.7763C2.875 12.8632 2.875 13.4066 3.11002 13.8217C3.31674 14.1869 3.64661 14.4837 4.05233 14.6698C4.51358 14.8813 5.1176 14.8813 6.32563 14.8813H7.1875" stroke="#656565" stroke-width="1.5" stroke-linecap="round" stroke-linejoin="round"/>
</svg>
