<svg width="199" height="46" viewBox="0 0 199 46" fill="none" xmlns="http://www.w3.org/2000/svg">
<path fill-rule="evenodd" clip-rule="evenodd" d="M42.7179 0H0V45.7692H42.7179V0ZM4.13314 35.2891V36.088H7.49707C8.3695 36.088 9.04716 35.9675 9.53346 35.7278C10.0197 35.4882 10.3625 35.0209 10.5617 34.3269C10.762 33.6331 10.861 32.6198 10.861 31.2843V9.6627H7.49707V31.2843C7.49707 32.4861 7.34127 33.4532 7.02971 34.1875C6.71813 34.9231 6.00151 35.2891 4.88093 35.2891H4.13314ZM17.0624 10.212V10.4717C17.572 11.5459 18.8323 12.5445 20.1809 13.6132C21.4937 14.6533 22.89 15.7597 23.7591 17.0666C24.676 18.4437 26.096 21.4506 25.9212 24.5016C25.9212 24.5016 25.3181 24.5183 25.0955 23.7673C23.4398 18.1695 20.7568 17.3492 20.7568 17.3492C21.0106 17.9421 21.3552 18.3274 21.83 18.8582L21.8304 18.8585C21.9302 18.9702 22.036 19.0884 22.1479 19.2163C22.7499 19.903 22.268 20.4121 22.268 20.4121C21.419 20.0056 20.0013 18.4974 19.3303 17.5054C18.0296 15.9885 17.3754 14.5449 17.0624 13.3441V36.0891H15.568V14.4675C15.568 13.2657 15.331 12.2988 14.858 11.5644C14.384 10.8299 13.4993 10.4627 12.2052 10.4627H11.8313V9.6615H14.2605C16.3141 9.79553 16.3892 9.83805 16.7831 10.0611C16.8268 10.0858 16.8743 10.1128 16.9289 10.1423C16.9296 10.1397 16.93 10.1384 16.93 10.1384L16.9317 10.1438C16.9712 10.1652 17.0144 10.1878 17.0624 10.212ZM37.2438 10.4639V9.6639H33.88C33.0076 9.6639 32.3299 9.7843 31.8437 10.024C31.3573 10.2636 31.0145 10.731 30.8153 11.4249C30.6152 12.1188 30.516 13.1322 30.516 14.4675V33.3545C30.2963 32.1389 29.7706 30.5556 28.6187 28.6829C27.9901 27.66 26.6381 26.0849 25.8068 25.6379C25.8068 25.6379 25.3038 26.123 25.8759 26.8384C25.9812 26.9704 26.0812 27.0925 26.1756 27.2081C26.6292 27.7627 26.9585 28.1651 27.1877 28.7711C27.1877 28.7711 24.5415 27.8232 23.1228 22.1504C22.9313 21.3862 22.3283 21.3743 22.3283 21.3743C22.0256 24.4134 23.3176 27.4858 24.1765 28.907C24.9685 30.2191 26.2409 31.3217 27.4438 32.3643C28.8746 33.6042 30.2073 34.7588 30.516 36.0795V36.0904H33.88V14.4687C33.88 13.2669 34.0357 12.3 34.3473 11.5655C34.6589 10.8299 35.3755 10.4639 36.4961 10.4639H37.2438Z" fill="#417D88"/>
<path d="M61.6964 44.3629C59.4368 44.3629 57.5953 43.7015 56.1668 42.3823C54.7384 41.063 54.0267 38.9528 54.0267 36.0514V16.2278H49.5522V13.669H54.0267V7.91551L57.222 4.07812H59.7802V13.669H67.4549V16.2278H59.7802V36.0514C59.7802 37.9675 60.1535 39.4106 60.9001 40.3661C61.6467 41.3268 62.7665 41.8049 64.2596 41.8049C65.3696 41.8049 66.2853 41.6752 67.007 41.4216C67.7337 41.1681 68.4156 40.8689 69.0526 40.5255L69.6897 41.8049C69.0079 42.3178 68.0672 42.8698 66.8776 43.4675C65.6831 44.0644 63.956 44.3629 61.6964 44.3629Z" fill="#417D88"/>
<path d="M86.7617 44.3639C83.7754 44.3639 81.2421 43.6626 79.1518 42.2536C77.0613 40.8453 75.4637 38.9487 74.3538 36.5652C73.2439 34.176 72.6914 31.5579 72.6914 28.7007C72.6914 25.8044 73.2439 23.1718 74.3538 20.8021C75.4637 18.4383 77.0613 16.5518 79.1518 15.1435C81.2421 13.7352 83.7754 13.0332 86.7617 13.0332C89.743 13.0332 92.2814 13.7352 94.3718 15.1435C96.4622 16.5518 98.0598 18.4383 99.1698 20.8021C100.28 23.1667 100.832 25.7993 100.832 28.7007C100.832 31.5579 100.28 34.1811 99.1698 36.5652C98.0598 38.9537 96.4622 40.8503 94.3718 42.2536C92.2814 43.6626 89.748 44.3639 86.7617 44.3639ZM86.7617 41.8058C88.3793 41.8058 89.7879 41.2183 90.9823 40.0491C92.1769 38.8791 93.1026 37.3013 93.7645 35.3156C94.4265 33.335 94.755 31.1247 94.755 28.6964C94.755 26.2224 94.4265 24.0078 93.7645 22.0467C93.1026 20.0856 92.1769 18.518 90.9823 17.348C89.7879 16.1787 88.3793 15.5912 86.7617 15.5912C85.184 15.5912 83.7904 16.1787 82.571 17.348C81.3566 18.523 80.4159 20.0856 79.7589 22.0467C79.097 24.0078 78.7685 26.2275 78.7685 28.6964C78.7685 31.1247 79.097 33.3299 79.7589 35.3156C80.4209 37.2962 81.3566 38.874 82.571 40.0491C83.7904 41.2234 85.184 41.8058 86.7617 41.8058Z" fill="#417D88"/>
<path d="M119.246 44.3635C117.455 44.3635 115.727 44.0455 114.065 43.4029C112.403 42.7661 111.039 41.6114 109.974 39.9488C108.909 38.2869 108.376 35.9224 108.376 32.8514V21.3393C108.376 19.4232 108.108 17.8758 107.575 16.7058C107.042 15.5366 105.818 14.949 103.897 14.949H103.26V13.6697H108.376C109.869 13.6697 111.029 13.8638 111.86 14.2471C112.691 14.6303 113.279 15.3772 113.617 16.487C113.956 17.5969 114.13 19.2145 114.13 21.3444V32.8565C114.13 34.9871 114.468 36.6837 115.155 37.9385C115.837 39.1976 116.723 40.1031 117.808 40.6559C118.893 41.2079 120.013 41.4868 121.162 41.4868C122.013 41.4868 122.825 41.3274 123.591 41.0094C124.358 40.6906 125.084 40.2726 125.767 39.7597C126.448 39.2475 127.045 38.6948 127.558 38.0978V13.6697H133.312V43.7217H130.116L127.877 41.1637H127.558C126.747 41.9743 125.642 42.7111 124.233 43.3682C122.825 44.0354 121.162 44.3635 119.246 44.3635Z" fill="#417D88"/>
<path d="M154.862 44.3639C151.706 44.3639 149.084 43.6626 146.998 42.2536C144.908 40.8453 143.355 38.9487 142.33 36.5652C141.305 34.176 140.797 31.5579 140.797 28.7007C140.797 25.8044 141.309 23.1718 142.33 20.8021C143.35 18.4332 144.908 16.5518 146.998 15.1435C149.089 13.7352 151.706 13.0332 154.862 13.0332C157.121 13.0332 159.028 13.202 160.586 13.5454C162.143 13.8895 163.323 14.4618 164.135 15.2724C164.945 16.0838 165.413 17.0749 165.543 18.2441C165.672 19.4184 165.732 21.1955 165.732 23.5847H164.453C164.284 20.8572 163.418 18.8411 161.865 17.5421C160.307 16.2432 158.401 15.5912 156.141 15.5912C154.011 15.5912 152.264 16.1787 150.9 17.348C149.537 18.523 148.521 20.0856 147.865 22.0467C147.202 24.0078 146.873 26.2275 146.873 28.6964C146.873 31.1247 147.202 33.3299 147.865 35.3156C148.526 37.2962 149.537 38.874 150.9 40.0491C152.264 41.2234 154.011 41.8058 156.141 41.8058C158.401 41.8058 160.232 41.3582 161.641 40.462C163.05 39.5659 164.304 38.3119 165.413 36.6891L166.693 37.6497C165.752 39.2725 164.687 40.5714 163.497 41.5523C162.303 42.5325 160.994 43.2439 159.566 43.6923C158.132 44.14 156.564 44.3639 154.862 44.3639Z" fill="#417D88"/>
<path d="M173.403 43.7268V9.19555C173.403 7.2794 173.134 5.73127 172.602 4.56203C172.069 3.39205 170.844 2.80453 168.923 2.80453H167.645V1.52588H173.398C174.891 1.52588 176.051 1.72003 176.882 2.10326C177.713 2.48649 178.3 3.23267 178.639 4.34252C178.977 5.45236 179.152 7.07005 179.152 9.20063V16.2328C179.963 15.4221 181.068 14.6904 182.476 14.0283C183.884 13.3662 185.547 13.038 187.463 13.038C188.827 13.038 190.161 13.2068 191.46 13.5502C192.759 13.8935 193.924 14.476 194.944 15.3077C195.964 16.1386 196.785 17.3129 197.407 18.8263C198.025 20.3389 198.333 22.2456 198.333 24.5501V43.7319H192.58V24.5501C192.58 22.4195 192.236 20.7221 191.555 19.4681C190.872 18.2091 189.996 17.3035 188.932 16.7508C187.867 16.198 186.736 15.9198 185.542 15.9198C184.263 15.9198 183.078 16.2632 181.994 16.9449C180.908 17.6266 179.958 18.4177 179.146 19.3087V43.7369H173.403V43.7268Z" fill="#417D88"/>
</svg>
