<svg width="93" height="89" viewBox="0 0 93 89" fill="none" xmlns="http://www.w3.org/2000/svg">
  <path d="M7.59108 88.7547C6.17864 88.7547 5.02754 88.4027 4.13465 87.7014C3.24177 87 2.79688 85.8779 2.79688 84.335V73.7939H0V72.4336H2.79688V69.3742L4.7942 67.3337H6.39331V72.4336H11.1906V73.7939H6.39331V84.335C6.39331 85.3539 6.62664 86.1214 7.0933 86.6295C7.55997 87.1403 8.25997 87.3944 9.19329 87.3944C9.88707 87.3944 10.4595 87.3256 10.9106 87.1906C11.3648 87.0556 11.7911 86.8968 12.1893 86.7142L12.5875 87.3944C12.1613 87.667 11.5733 87.9607 10.8297 88.2783C10.0831 88.5959 9.00352 88.7547 7.59108 88.7547Z" fill="#417D88"/>
  <path d="M23.2584 88.7546C21.3918 88.7546 19.8082 88.3814 18.5016 87.6325C17.1949 86.8835 16.1963 85.8752 15.5025 84.6075C14.8087 83.3372 14.4634 81.9451 14.4634 80.426C14.4634 78.8857 14.8087 77.4857 15.5025 76.226C16.1963 74.9689 17.1949 73.9658 18.5016 73.2169C19.8082 72.4679 21.3918 72.0947 23.2584 72.0947C25.122 72.0947 26.7087 72.4679 28.0153 73.2169C29.322 73.9658 30.3207 74.9689 31.0144 76.226C31.7082 77.4831 32.0535 78.8831 32.0535 80.426C32.0535 81.9451 31.7082 83.3398 31.0144 84.6075C30.3207 85.8778 29.322 86.8862 28.0153 87.6325C26.7087 88.3814 25.1251 88.7546 23.2584 88.7546ZM23.2584 87.3943C24.2696 87.3943 25.15 87.082 25.8967 86.4601C26.6433 85.8381 27.222 84.9992 27.6358 83.9432C28.0495 82.8899 28.2549 81.7148 28.2549 80.4233C28.2549 79.108 28.0495 77.9303 27.6358 76.8876C27.222 75.8449 26.6433 75.0112 25.8967 74.3893C25.15 73.7673 24.2696 73.455 23.2584 73.455C22.2722 73.455 21.4011 73.7673 20.6389 74.3893C19.8798 75.0138 19.2918 75.8449 18.8811 76.8876C18.4674 77.9303 18.262 79.1107 18.262 80.4233C18.262 81.7148 18.4674 82.8873 18.8811 83.9432C19.2949 84.9965 19.8798 85.8355 20.6389 86.4601C21.4011 87.0847 22.2722 87.3943 23.2584 87.3943Z" fill="#417D88"/>
  <path d="M43.5649 88.7545C42.4449 88.7545 41.3653 88.5851 40.3262 88.2437C39.2871 87.905 38.4347 87.291 37.7689 86.407C37.1031 85.5231 36.7702 84.266 36.7702 82.6331V76.5117C36.7702 75.4928 36.6022 74.6697 36.2693 74.0478C35.9365 73.4258 35.1711 73.1135 33.9702 73.1135H33.572V72.4334H36.7702C37.7036 72.4334 38.4284 72.5366 38.948 72.7404C39.4676 72.9442 39.8347 73.3411 40.0462 73.9313C40.2578 74.5215 40.3667 75.3816 40.3667 76.5143V82.6357C40.3667 83.7685 40.5782 84.6709 41.0075 85.3378C41.4338 86.0074 41.9875 86.4891 42.6658 86.7829C43.344 87.0766 44.044 87.2248 44.7626 87.2248C45.2946 87.2248 45.8017 87.1401 46.2809 86.9707C46.76 86.8014 47.2142 86.5791 47.6404 86.3065C48.0666 86.0339 48.44 85.7401 48.7604 85.4225V72.4334H52.3568V88.4131H50.3595L48.9595 87.0528H48.7604C48.2533 87.4842 47.5626 87.8759 46.6822 88.2252C45.8017 88.5798 44.7626 88.7545 43.5649 88.7545Z" fill="#417D88"/>
  <path d="M65.8278 88.7546C63.8554 88.7546 62.2158 88.3814 60.9123 87.6325C59.6056 86.8835 58.635 85.8752 57.9941 84.6075C57.3532 83.3372 57.0359 81.9451 57.0359 80.426C57.0359 78.8857 57.3563 77.4857 57.9941 76.226C58.6319 74.9662 59.6056 73.9658 60.9123 73.2169C62.2189 72.4679 63.8554 72.0947 65.8278 72.0947C67.2403 72.0947 68.4318 72.1847 69.4056 72.3673C70.3794 72.5499 71.1167 72.8543 71.6238 73.2857C72.1309 73.717 72.4234 74.2437 72.5042 74.8656C72.5851 75.4902 72.6225 76.435 72.6225 77.7054H71.8229C71.7171 76.2551 71.1758 75.1832 70.2051 74.4925C69.2314 73.8017 68.0398 73.455 66.6274 73.455C65.2958 73.455 64.2038 73.7673 63.3514 74.3893C62.4989 75.0138 61.8643 75.8449 61.4536 76.8876C61.0398 77.9303 60.8345 79.1107 60.8345 80.4233C60.8345 81.7148 61.0398 82.8873 61.4536 83.9432C61.8674 84.9965 62.4989 85.8355 63.3514 86.4601C64.2038 87.0847 65.2958 87.3943 66.6274 87.3943C68.0398 87.3943 69.1847 87.1561 70.0651 86.6797C70.9456 86.2034 71.7296 85.5364 72.4233 84.6737L73.2229 85.1844C72.6349 86.0472 71.9691 86.738 71.2256 87.2593C70.4789 87.7807 69.6607 88.1591 68.7678 88.3973C67.8718 88.6355 66.8918 88.7546 65.8278 88.7546Z" fill="#417D88"/>
  <path d="M77.4166 88.4158V70.0542C77.4166 69.0353 77.2486 68.2122 76.9157 67.5903C76.5828 66.9683 75.8175 66.6561 74.6166 66.6561H73.817V65.9759H77.4134C78.3468 65.9759 79.0717 66.0791 79.5912 66.2829C80.1108 66.4867 80.4779 66.8837 80.6894 67.4738C80.901 68.064 81.0099 68.9241 81.0099 70.0568V73.7964C81.517 73.365 82.2076 72.976 83.0881 72.624C83.9685 72.272 85.0076 72.0973 86.2054 72.0973C87.0579 72.0973 87.8916 72.1873 88.7036 72.3699C89.5156 72.5525 90.2436 72.8622 90.8814 73.3041C91.5192 73.7461 92.0325 74.3707 92.4214 75.1752C92.8072 75.9798 93.0001 76.9934 93.0001 78.2187V88.4184H89.4036V78.2187C89.4036 77.086 89.189 76.1835 88.7627 75.5166C88.3365 74.847 87.789 74.3654 87.1232 74.0716C86.4574 73.7778 85.7512 73.6296 85.0045 73.6296C84.205 73.6296 83.4645 73.8123 82.7863 74.1748C82.1081 74.5374 81.5139 74.9582 81.0068 75.4319V88.4211H77.4166V88.4158Z" fill="#417D88"/>
  <path d="M0.239075 59.1483V57.3698H2.32973C5.46261 57.3698 7.46616 56.5573 8.33727 54.9244C9.20837 53.2941 9.64393 51.1478 9.64393 48.4801V0.485352H19.0488V48.4801C19.0488 51.4442 18.7719 53.6938 18.2119 55.234C17.655 56.7743 16.6968 57.8118 15.3372 58.3437C13.9777 58.8757 12.083 59.143 9.64393 59.143H0.239075V59.1483Z" fill="#417D88"/>
  <path d="M36.3871 1.70442V59.1454H32.2088V11.1507C32.2088 8.48296 31.5462 6.33663 30.224 4.70637C28.8986 3.07611 26.4253 2.26098 22.8071 2.26098H21.7618V0.482513H28.5533C35.4 0.837261 34.3806 0.903212 36.3871 1.70442Z" fill="#417D88"/>
  <path d="M92.81 0.48526V2.26373H90.7193C87.5865 2.26373 85.5829 3.07621 84.7118 4.70911C83.8407 6.33937 83.4051 8.48571 83.4051 11.1534V59.1482H74.0003V11.1508C74.0003 8.18665 74.2772 5.9371 74.8372 4.39683C75.3941 2.85655 76.3523 1.81911 77.7118 1.28716C79.0714 0.755205 80.966 0.487905 83.4051 0.487905H92.81V0.48526Z" fill="#417D88"/>
  <path d="M61.1545 33.4238C61.6429 26.6514 57.6732 19.9768 55.1096 16.9201C49.9265 10.7325 38.039 6.56954 36.0168 1.54114C36.0168 1.54114 33.307 9.17107 42.7274 17.894C44.6034 20.0959 48.567 23.4438 50.9407 24.3463C50.9407 24.3463 52.2878 23.2162 50.6047 21.6918C48.8065 20.0589 47.5745 19.1405 46.7159 17.5473C46.7159 17.5473 54.2167 19.3681 58.846 31.7936C59.4683 33.4609 61.1545 33.4238 61.1545 33.4238Z" fill="#417D88"/>
  <path d="M51.1085 26.4819C50.2623 33.2279 53.8743 40.048 56.2761 43.2027C61.1263 49.5835 72.4258 53.7332 74.0031 59.1348C74.0031 59.1348 76.5324 52.8228 68.6956 42.7051C66.9378 40.4344 63.1578 36.9384 60.8338 35.9459C60.8338 35.9459 59.4276 37.0231 61.0267 38.611C62.7378 40.31 63.92 41.276 64.6947 42.901C64.6947 42.901 57.2965 40.797 53.3299 28.2048C52.7948 26.5084 51.1085 26.4819 51.1085 26.4819Z" fill="#417D88"/>
</svg>
