<svg width="110" height="120" viewBox="0 0 110 120" fill="none" xmlns="http://www.w3.org/2000/svg">
<path d="M8.97874 120C7.30811 120 5.94658 119.521 4.89047 118.568C3.83437 117.614 3.30815 116.089 3.30815 113.991V99.6615H0V97.8123H3.30815V93.6533L5.67059 90.8794H7.56201V97.8123H13.2363V99.6615H7.56201V113.991C7.56201 115.377 7.838 116.42 8.38997 117.111C8.94194 117.805 9.7699 118.15 10.8738 118.15C11.6944 118.15 12.3715 118.057 12.9051 117.873C13.4424 117.69 13.9465 117.474 14.4175 117.226L14.8885 118.15C14.3844 118.521 13.6889 118.92 12.8094 119.352C11.9263 119.784 10.6494 120 8.97874 120Z" fill="#417D88"/>
<path d="M27.5102 120C25.3024 120 23.4293 119.493 21.8838 118.474C20.3383 117.456 19.1571 116.086 18.3365 114.362C17.5159 112.635 17.1074 110.743 17.1074 108.678C17.1074 106.584 17.5159 104.681 18.3365 102.968C19.1571 101.259 20.3383 99.8957 21.8838 98.8775C23.4293 97.8593 25.3024 97.3521 27.5102 97.3521C29.7145 97.3521 31.5912 97.8593 33.1367 98.8775C34.6822 99.8957 35.8634 101.259 36.684 102.968C37.5046 104.677 37.9131 106.58 37.9131 108.678C37.9131 110.743 37.5046 112.639 36.684 114.362C35.8634 116.089 34.6822 117.46 33.1367 118.474C31.5912 119.493 29.7181 120 27.5102 120ZM27.5102 118.151C28.7062 118.151 29.7476 117.726 30.6307 116.881C31.5139 116.035 32.1983 114.895 32.6877 113.459C33.1772 112.027 33.42 110.43 33.42 108.674C33.42 106.886 33.1772 105.285 32.6877 103.868C32.1983 102.45 31.5139 101.317 30.6307 100.471C29.7476 99.6258 28.7062 99.2013 27.5102 99.2013C26.3437 99.2013 25.3134 99.6258 24.4119 100.471C23.514 101.32 22.8185 102.45 22.3328 103.868C21.8433 105.285 21.6005 106.89 21.6005 108.674C21.6005 110.43 21.8433 112.024 22.3328 113.459C22.8222 114.891 23.514 116.032 24.4119 116.881C25.3134 117.73 26.3437 118.151 27.5102 118.151Z" fill="#417D88"/>
<path d="M51.529 119.999C50.2043 119.999 48.9274 119.769 47.6983 119.305C46.4693 118.845 45.461 118.01 44.6735 116.808C43.8861 115.607 43.4923 113.898 43.4923 111.678V103.356C43.4923 101.971 43.2936 100.852 42.8999 100.007C42.5061 99.1612 41.6009 98.7366 40.1805 98.7366H39.7095V97.812H43.4923C44.5963 97.812 45.4537 97.9523 46.0682 98.2294C46.6827 98.5064 47.1169 99.046 47.3672 99.8483C47.6174 100.651 47.7462 101.82 47.7462 103.36V111.681C47.7462 113.221 47.9964 114.448 48.5042 115.355C49.0084 116.265 49.6634 116.92 50.4656 117.319C51.2678 117.718 52.0957 117.92 52.9458 117.92C53.575 117.92 54.1748 117.805 54.7415 117.575C55.3082 117.344 55.8454 117.042 56.3496 116.671C56.8537 116.301 57.2953 115.902 57.6743 115.47V97.812H61.9282V119.535H59.5657L57.9098 117.686H57.6743C57.0745 118.272 56.2576 118.805 55.2162 119.28C54.1748 119.762 52.9458 119.999 51.529 119.999Z" fill="#417D88"/>
<path d="M77.8611 120C75.5281 120 73.5888 119.493 72.047 118.474C70.5014 117.456 69.3533 116.086 68.5953 114.362C67.8373 112.635 67.4619 110.743 67.4619 108.678C67.4619 106.584 67.8409 104.681 68.5953 102.968C69.3497 101.256 70.5014 99.8957 72.047 98.8775C73.5925 97.8593 75.5281 97.3521 77.8611 97.3521C79.5317 97.3521 80.9411 97.4744 82.0929 97.7226C83.2446 97.9709 84.1168 98.3846 84.7166 98.971C85.3164 99.5575 85.6623 100.273 85.7579 101.119C85.8536 101.968 85.8978 103.252 85.8978 104.979H84.9521C84.827 103.008 84.1867 101.551 83.0386 100.612C81.8868 99.6726 80.4774 99.2013 78.8068 99.2013C77.2318 99.2013 75.9402 99.6258 74.9319 100.471C73.9237 101.32 73.173 102.45 72.6873 103.868C72.1978 105.285 71.955 106.89 71.955 108.674C71.955 110.43 72.1978 112.024 72.6873 113.459C73.1767 114.891 73.9237 116.032 74.9319 116.881C75.9402 117.73 77.2318 118.151 78.8068 118.151C80.4774 118.151 81.8316 117.827 82.873 117.179C83.9144 116.532 84.8417 115.625 85.6623 114.452L86.608 115.147C85.9125 116.319 85.125 117.258 84.2455 117.967C83.3624 118.676 82.3946 119.19 81.3385 119.514C80.2787 119.838 79.1196 120 77.8611 120Z" fill="#417D88"/>
<path d="M91.5681 119.539V94.5778C91.5681 93.1927 91.3694 92.0738 90.9756 91.2283C90.5819 90.3829 89.6767 89.9583 88.2563 89.9583H87.3105V89.0337H91.5644C92.6684 89.0337 93.5258 89.174 94.1403 89.451C94.7548 89.7281 95.189 90.2677 95.4393 91.07C95.6895 91.8723 95.8183 93.0416 95.8183 94.5814V99.6651C96.4181 99.0786 97.235 98.5498 98.2764 98.0713C99.3178 97.5928 100.547 97.3553 101.964 97.3553C102.972 97.3553 103.958 97.4776 104.918 97.7259C105.879 97.9741 106.74 98.3951 107.494 98.9959C108.249 99.5967 108.856 100.446 109.316 101.54C109.772 102.633 110 104.011 110 105.677V119.543H105.746V105.677C105.746 104.137 105.493 102.91 104.988 102.004C104.484 101.093 103.837 100.439 103.049 100.039C102.262 99.6399 101.426 99.4384 100.543 99.4384C99.5974 99.4384 98.7216 99.6867 97.9194 100.18C97.1172 100.672 96.4144 101.244 95.8146 101.888V119.546H91.5681V119.539Z" fill="#417D88"/>
<path d="M0.282715 79.7509V77.3332H2.75555C6.46112 77.3332 8.83092 76.2287 9.86127 74.0088C10.8916 71.7926 11.4068 68.8748 11.4068 65.2483V0.00292969H22.5309V65.2483C22.5309 69.2778 22.2034 72.3359 21.541 74.4298C20.8823 76.5237 19.7489 77.934 18.1409 78.6572C16.5328 79.3803 14.2918 79.7437 11.4068 79.7437H0.282715V79.7509Z" fill="#417D88"/>
<path d="M43.0386 1.66109V79.7479H38.0966V14.5026C38.0966 10.876 37.3128 7.95825 35.7488 5.74203C34.1812 3.52581 31.2558 2.4177 26.9762 2.4177H25.7397V0H33.7728C41.871 0.482253 40.6653 0.571909 43.0386 1.66109Z" fill="#417D88"/>
<path d="M109.776 0.00390625V2.4216H107.304C103.598 2.4216 101.228 3.52611 100.198 5.74593C99.1676 7.96215 98.6524 10.8799 98.6524 14.5065V79.7519H87.5283V14.5029C87.5283 10.4734 87.8558 7.41529 88.5182 5.32139C89.1769 3.2275 90.3103 1.81718 91.9183 1.09403C93.5264 0.370877 95.7674 0.00750203 98.6524 0.00750203H109.776V0.00390625Z" fill="#417D88"/>
<path d="M72.3337 44.7807C72.9114 35.574 68.216 26.5005 65.1838 22.3451C59.0533 13.9335 44.9927 8.27422 42.6008 1.43848C42.6008 1.43848 39.3957 11.8108 50.5382 23.669C52.7571 26.6624 57.4452 31.2135 60.2529 32.4404C60.2529 32.4404 61.8462 30.9041 59.8555 28.8318C57.7285 26.612 56.2713 25.3636 55.2557 23.1977C55.2557 23.1977 64.1277 25.673 69.6033 42.5645C70.3392 44.8311 72.3337 44.7807 72.3337 44.7807Z" fill="#417D88"/>
<path d="M60.4515 35.3442C59.4506 44.5149 63.7229 53.7864 66.5637 58.0749C72.3006 66.7491 85.6656 72.3904 87.5313 79.7334C87.5313 79.7334 90.523 71.1527 81.2535 57.3985C79.1744 54.3116 74.7035 49.559 71.9546 48.2098C71.9546 48.2098 70.2914 49.6741 72.1828 51.8328C74.2067 54.1425 75.605 55.4557 76.5213 57.6647C76.5213 57.6647 67.7707 54.8045 63.0789 37.6864C62.446 35.3802 60.4515 35.3442 60.4515 35.3442Z" fill="#417D88"/>
</svg>
