<svg width="30" height="30" viewBox="0 0 30 30" fill="none" xmlns="http://www.w3.org/2000/svg">
<path d="M11.124 14.5283L12.8473 16.4978C13.0053 16.6784 13.2903 16.6651 13.4308 16.4705L16.9302 11.6252" stroke="#417D88" stroke-width="2" stroke-linecap="round" stroke-linejoin="round"/>
<path d="M3.82961 21.1334C1.99902 19.7666 1.99902 18.7334 1.99902 14.3336C1.99902 9.9338 1.99902 7.73391 3.82961 6.36708C5.66019 5.00024 8.60647 5.00024 14.499 5.00024C20.3916 5.00024 23.3379 5.00024 25.1684 6.36708C26.999 7.73391 26.999 9.9338 26.999 14.3336C26.999 18.7334 26.999 19.7666 25.1684 21.1334C23.3379 22.5002 20.3916 22.5002 14.499 22.5002C11.3622 22.5002 9.74869 24.5274 6.99902 26.0002V22.2532C5.6316 22.0633 4.62523 21.7275 3.82961 21.1334Z" stroke="#417D88" stroke-width="2" stroke-linecap="round" stroke-linejoin="round"/>
</svg>
