<svg width="27" height="33" viewBox="0 0 27 33" fill="none" xmlns="http://www.w3.org/2000/svg">
  <rect width="23" height="33" fill="white"/>
  <path d="M9.85 9.85C9.85 9.38333 10.0083 8.98333 10.325 8.65C10.6583 8.31667 11.075 8.15 11.575 8.15C12.075 8.15 12.4833 8.31667 12.8 8.65C13.1167 8.98333 13.275 9.38333 13.275 9.85C13.275 10.3 13.1167 10.6833 12.8 11C12.4833 11.3333 12.075 11.5 11.575 11.5C11.075 11.5 10.6583 11.3333 10.325 11C10.0083 10.6833 9.85 10.3 9.85 9.85ZM9.85 15.5141C9.85 15.0474 10.0083 14.6474 10.325 14.3141C10.6583 13.9807 11.075 13.8141 11.575 13.8141C12.075 13.8141 12.4833 13.9807 12.8 14.3141C13.1167 14.6474 13.275 15.0474 13.275 15.5141C13.275 15.9641 13.1167 16.3474 12.8 16.6641C12.4833 16.9974 12.075 17.1641 11.575 17.1641C11.075 17.1641 10.6583 16.9974 10.325 16.6641C10.0083 16.3474 9.85 15.9641 9.85 15.5141ZM9.85 21.1781C9.85 20.7115 10.0083 20.3115 10.325 19.9781C10.6583 19.6448 11.075 19.4781 11.575 19.4781C12.075 19.4781 12.4833 19.6448 12.8 19.9781C13.1167 20.3115 13.275 20.7115 13.275 21.1781C13.275 21.6281 13.1167 22.0115 12.8 22.3281C12.4833 22.6615 12.075 22.8281 11.575 22.8281C11.075 22.8281 10.6583 22.6615 10.325 22.3281C10.0083 22.0115 9.85 21.6281 9.85 21.1781Z" fill="#656565"/>
</svg>
