<svg width="43" height="42" viewBox="0 0 43 42" fill="none" xmlns="http://www.w3.org/2000/svg">
<path d="M22.0257 22.8528C24.2783 22.8726 26.0083 23.2932 27.5631 24.2752C27.9933 24.5366 28.3441 24.91 28.5781 25.3556C28.6427 25.5428 28.6626 25.7426 28.6363 25.9389C28.61 26.1352 28.5379 26.3227 28.426 26.4861C28.2101 26.7369 27.691 26.8443 27.323 26.8113C26.9404 26.7446 26.5857 26.5677 26.3023 26.3021C23.3208 23.7331 17.9118 24.9171 15.8484 27.219C15.6091 27.4859 15.3898 27.8029 15.0913 27.9752C14.8489 28.1148 14.4022 28.2041 14.227 28.0736C14.0423 27.9353 13.9715 27.4873 14.0338 27.2168C14.1447 26.8757 14.3259 26.5616 14.5657 26.2949C15.8356 24.6687 17.5384 23.7201 19.519 23.2687C20.4774 23.0496 21.4614 22.9439 22.0257 22.8528Z" fill="#1F304F"/>
<path d="M30.2849 17.6359C29.9081 18.1941 29.6693 18.7459 29.2595 19.1005C28.8314 19.471 28.1468 19.2234 27.7758 18.7204C27.2961 18.0693 27.3238 16.9722 27.8349 16.3834C28.2475 15.9081 28.9578 15.6872 29.3385 16.068C29.7262 16.4555 29.9307 17.0254 30.2849 17.6359Z" fill="#1F304F"/>
<path d="M15.6782 17.5862C15.5768 17.9617 15.5671 18.3651 15.3698 18.6272C15.1622 18.903 14.777 19.1969 14.4659 19.201C14.2822 19.1813 14.1048 19.1224 13.9458 19.0283C13.7868 18.9342 13.6499 18.8071 13.5442 18.6555C13.1092 17.9868 13.1744 17.2068 13.4571 16.4983C13.7397 15.7898 14.9227 15.7377 15.3015 16.4082C15.4996 16.7601 15.557 17.1904 15.6782 17.5862Z" fill="#1F304F"/>
<path d="M0.746092 14.8655C-1.11782 22.1913 0.514359 28.654 5.60066 34.0762C5.73318 34.2164 5.86805 34.3565 6.0031 34.4916C8.73521 37.2237 12.1384 38.9105 14.835 40.0845C15.9922 40.5897 21.9309 41.2037 23.5377 40.9643C33.0864 39.5383 39.3702 34.1528 41.5588 25.1425C41.9765 23.3776 42.1847 21.5695 42.1789 19.7557C42.189 15.4831 40.3899 10.5158 36.6801 6.79552C36.298 6.47968 35.9175 6.15252 35.5495 5.83546C34.751 5.14928 33.9261 4.43883 33.0628 3.83295C26.4693 -0.80792 19.6183 -0.833888 12.7012 1.62707C6.43846 3.85379 2.41662 8.30867 0.746092 14.8655ZM12.7279 3.82069C18.7971 1.29868 24.8867 0.853586 30.826 4.63091C31.9119 5.32233 34.8073 7.6623 35.2631 8.01376L35.2923 8.03535L35.3165 8.06221C37.6336 10.5194 40.2867 15.0123 40.2282 19.6308C40.2091 21.6056 39.9416 23.5701 39.4326 25.4783C37.9239 30.962 34.317 34.9585 28.4055 37.6919C22.3964 40.5692 13.7783 37.6603 11.4854 36.1468C8.95089 34.4139 6.73328 32.2583 4.92945 29.774C2.10045 25.7688 1.46577 20.0114 2.98488 14.7482C3.69645 12.3181 4.9399 10.0767 6.62506 8.18665C8.31025 6.29658 10.3949 4.80521 12.7279 3.82069Z" fill="#1F304F"/>
<path d="M9.27656 15.9586C8.65988 15.6556 8.06259 15.3147 7.4881 14.9379C7.33311 14.8256 7.33746 14.3576 7.42504 14.1074C7.46625 13.992 7.91959 13.9046 8.12114 13.9801C10.1276 14.7339 11.6109 13.7449 13.0078 12.5267C13.4146 12.1718 13.698 11.6783 14.0547 11.2626C14.405 10.8548 14.827 10.4796 15.3735 10.8505C15.9083 11.2142 15.7507 11.7747 15.5116 12.2392C14.5443 14.1186 12.8712 15.0443 10.907 15.5388C10.4112 15.6637 9.89725 15.7135 9.39092 15.798C9.3526 15.8515 9.31447 15.905 9.27656 15.9586Z" fill="#1F304F"/>
<path d="M31.8646 13.7861C30.0457 13.6579 28.5552 13.0624 27.4135 11.7448C27.1517 11.4752 26.9598 11.1457 26.8545 10.7849C26.7984 10.5104 26.9202 10.0465 27.1236 9.91526C27.327 9.78398 27.8737 9.85056 28.0177 10.0313C29.2128 11.531 30.8071 11.8981 32.6078 11.8241C33.1391 11.8023 33.6912 11.9585 33.7277 12.6245C33.7615 13.2386 33.3178 13.5312 32.7724 13.6528C32.4404 13.727 32.0984 13.7531 31.8646 13.7861Z" fill="#1F304F"/>
</svg>
