<svg width="58" height="51" viewBox="0 0 58 51" fill="none" xmlns="http://www.w3.org/2000/svg">
<path d="M39.2709 44.625V34.5C39.2709 32.636 37.5465 31.125 35.4193 31.125H22.5808C20.4536 31.125 18.7292 32.636 18.7292 34.5V44.625M39.2709 6.98129V12C39.2709 13.864 37.5465 15.375 35.4193 15.375H22.5808C20.4536 15.375 18.7292 13.864 18.7292 12V6.375M39.2709 6.98129C38.2783 6.58549 37.1916 6.375 36.0801 6.375H18.7292M39.2709 6.98129C40.1027 7.31299 40.8684 7.77485 41.5271 8.35203L47.2855 13.398C48.7301 14.6638 49.5417 16.3807 49.5417 18.1709V37.875C49.5417 41.6029 46.0929 44.625 41.8386 44.625H16.1615C11.9072 44.625 8.45837 41.6029 8.45837 37.875V13.125C8.45837 9.39708 11.9072 6.375 16.1615 6.375H18.7292" stroke="#417D88" stroke-width="1.5" stroke-linecap="round" stroke-linejoin="round"/>
</svg>
