<svg width="43" height="43" viewBox="0 0 43 43" fill="none" xmlns="http://www.w3.org/2000/svg">
<g clip-path="url(#clip0_2998_3916)">
<path d="M0.977722 15.8067C-0.906168 23.211 0.743512 29.7429 5.88434 35.2243C6.01829 35.3659 6.1546 35.5073 6.2911 35.6427C9.0525 38.4041 12.4922 40.1093 15.2177 41.2959C16.3875 41.8065 22.3897 42.4271 24.0137 42.1852C33.6648 40.7439 40.0159 35.3006 42.228 26.1937C42.6504 24.4098 42.8606 22.5823 42.8547 20.7491C42.8649 16.4307 41.0466 11.4101 37.297 7.65C36.9108 7.33096 36.5262 7.0001 36.1542 6.67983C35.3474 5.98611 34.5135 5.26823 33.6409 4.65566C26.9767 -0.0347791 20.0523 -0.0611651 13.061 2.42636C6.73112 4.67714 2.66616 9.17956 0.977722 15.8067ZM13.088 4.64362C19.2223 2.0944 25.3771 1.64453 31.3801 5.46253C32.4777 6.16136 35.4041 8.5266 35.8645 8.88165L35.8943 8.90369L35.9188 8.93062C38.2607 11.4141 40.9425 15.9552 40.8831 20.6232C40.8638 22.6193 40.5934 24.605 40.079 26.5337C38.5542 32.0759 34.9086 36.1152 28.9337 38.8782C22.8601 41.7863 14.1497 38.8462 11.8321 37.3162C9.27049 35.5651 7.02911 33.3863 5.20591 30.8754C2.3466 26.827 1.70511 21.0081 3.24049 15.6884C3.95966 13.2321 5.21645 10.9667 6.9197 9.05636C8.62293 7.14604 10.73 5.63867 13.088 4.64362Z" fill="#1F304F"/>
<path d="M13.2883 12.2926C15.1014 12.8421 16.011 13.7667 16.6229 14.9926C16.7329 15.207 16.798 15.4389 16.8144 15.6748C16.8437 16.3081 16.2603 16.6558 15.7152 16.2789C15.33 15.9812 15.008 15.6149 14.7679 15.2014C14.1641 14.2554 13.3258 13.7828 12.1859 13.7126C10.5099 13.6095 9.04326 13.9483 7.93491 15.2099C7.68257 15.497 7.35028 15.7311 6.94324 15.4405C6.50878 15.1304 6.59523 14.6763 6.86493 14.3906C7.39884 13.825 7.95342 13.2256 8.63046 12.8472C10.2035 11.9686 11.9491 12.0113 13.2883 12.2926Z" fill="#1F304F"/>
<path d="M28.2405 12.2926C26.4274 12.8421 25.5178 13.7667 24.9059 14.9926C24.7959 15.207 24.7308 15.4389 24.7144 15.6748C24.6852 16.3081 25.2685 16.6558 25.8136 16.2789C26.1988 15.9812 26.5208 15.6149 26.7609 15.2014C27.3647 14.2554 28.203 13.7828 29.3429 13.7126C31.0189 13.6095 32.4856 13.9483 33.5939 15.2099C33.8462 15.497 34.1785 15.7311 34.5856 15.4405C35.02 15.1304 34.9336 14.6763 34.6639 14.3906C34.13 13.825 33.5754 13.2256 32.8984 12.8472C31.3253 11.9686 29.5797 12.0113 28.2405 12.2926Z" fill="#1F304F"/>
<path d="M21.2513 30.8108C19.9774 30.8108 18.1186 30.219 16.3741 29.2542C15.4096 28.7196 14.5774 28.0166 14.08 26.9984C13.9272 26.7379 13.8361 26.4458 13.814 26.1446C13.822 25.8535 13.8322 25.5816 14.1155 25.4599C14.259 25.4099 14.4138 25.4015 14.5619 25.4355C14.71 25.4697 14.8454 25.5449 14.9526 25.6526C15.2957 25.9838 15.4822 26.4937 15.8506 26.7789C18.3532 28.7175 21.1221 29.5659 24.2525 28.5973C25.7111 28.1459 26.7232 27.1212 27.4884 25.8311C27.6728 25.5201 27.8053 25.1252 28.0775 24.9332C28.3826 24.7183 28.901 24.5083 29.1756 24.6317C29.4503 24.755 29.6723 25.2913 29.6763 25.6493C29.6803 26.0382 29.4608 26.463 29.246 26.8158C27.5957 29.5288 25.1615 30.8425 21.2513 30.8108Z" fill="#1F304F"/>
</g>
<defs>
<clipPath id="clip0_2998_3916">
<rect width="43" height="43" fill="white"/>
</clipPath>
</defs>
</svg>
