<svg width="21" height="21" viewBox="0 0 21 21" fill="none" xmlns="http://www.w3.org/2000/svg">
<path d="M11.3896 1.64653C11.0065 0.951158 9.99349 0.951158 9.61036 1.64653C9.40165 2.02533 9.20141 2.40922 9.00988 2.79794C8.40676 4.02203 7.89007 5.29409 7.46749 6.60664C7.32294 7.05562 6.89342 7.36745 6.40184 7.3805C5.24177 7.4113 4.08382 7.50675 2.93556 7.66881C2.60762 7.71509 2.28142 7.76661 1.95706 7.82328C1.15053 7.96419 0.847899 8.88376 1.42062 9.44417C1.55127 9.57201 1.68302 9.69877 1.81586 9.82446C2.80926 10.7643 3.86373 11.6436 4.97295 12.4561C5.35553 12.7363 5.5128 13.2171 5.36658 13.6559C4.90848 15.0308 4.55394 16.451 4.31191 17.9079C4.26337 18.2001 4.21936 18.4937 4.17994 18.7888C4.07493 19.5749 4.91717 20.13 5.64823 19.7552C5.90918 19.6215 6.16782 19.484 6.42409 19.343C7.59985 18.6958 8.72552 17.9725 9.79401 17.1799C10.2087 16.8723 10.7913 16.8723 11.206 17.1799C12.2745 17.9725 13.4001 18.6958 14.5759 19.343C14.8322 19.484 15.0908 19.6215 15.3518 19.7552C16.0828 20.13 16.9251 19.5749 16.8201 18.7888C16.7806 18.4937 16.7366 18.2001 16.6881 17.9079C16.4461 16.451 16.0915 15.0308 15.6334 13.6559C15.4872 13.2171 15.6445 12.7363 16.027 12.4561C17.1363 11.6436 18.1907 10.7643 19.1841 9.82446C19.317 9.69877 19.4487 9.57201 19.5794 9.44417C20.1521 8.88376 19.8495 7.96419 19.0429 7.82328C18.7186 7.76661 18.3924 7.71509 18.0644 7.66881C16.9162 7.50675 15.7582 7.4113 14.5982 7.3805C14.1066 7.36745 13.6771 7.05562 13.5325 6.60664C13.1099 5.29409 12.5932 4.02203 11.9901 2.79794C11.7986 2.40922 11.5983 2.02533 11.3896 1.64653Z" stroke="#656565" stroke-width="2" stroke-linecap="round" stroke-linejoin="round"/>
</svg>
