<svg width="4" height="19" viewBox="0 0 4 19" fill="none" xmlns="http://www.w3.org/2000/svg">
<path d="M2 3.5C2.82843 3.5 3.5 2.82843 3.5 2C3.5 1.17157 2.82843 0.5 2 0.5C1.17157 0.5 0.5 1.17157 0.5 2C0.5 2.82843 1.17157 3.5 2 3.5Z" fill="#656565"/>
<path d="M2 11C2.82843 11 3.5 10.3284 3.5 9.5C3.5 8.67157 2.82843 8 2 8C1.17157 8 0.5 8.67157 0.5 9.5C0.5 10.3284 1.17157 11 2 11Z" fill="#656565"/>
<path d="M2 18.5C2.82843 18.5 3.5 17.8284 3.5 17C3.5 16.1716 2.82843 15.5 2 15.5C1.17157 15.5 0.5 16.1716 0.5 17C0.5 17.8284 1.17157 18.5 2 18.5Z" fill="#656565"/>
</svg>
