<svg width="20" height="20" viewBox="0 0 20 20" fill="none" xmlns="http://www.w3.org/2000/svg">
<g clip-path="url(#clip0_2883_1980)">
<path d="M15.5001 3.33333H12.9167C12.7233 2.39284 12.2116 1.54779 11.4678 0.940598C10.724 0.333408 9.79359 0.0012121 8.83342 0L7.16675 0C6.20658 0.0012121 5.27618 0.333408 4.53237 0.940598C3.78857 1.54779 3.27683 2.39284 3.08341 3.33333H0.500081C0.279068 3.33333 0.067106 3.42113 -0.0891743 3.57741C-0.245455 3.73369 -0.333252 3.94565 -0.333252 4.16667C-0.333252 4.38768 -0.245455 4.59964 -0.0891743 4.75592C0.067106 4.9122 0.279068 5 0.500081 5H1.33341V15.8333C1.33474 16.938 1.77415 17.997 2.55526 18.7782C3.33638 19.5593 4.39542 19.9987 5.50008 20H10.5001C11.6047 19.9987 12.6638 19.5593 13.4449 18.7782C14.226 17.997 14.6654 16.938 14.6667 15.8333V5H15.5001C15.7211 5 15.9331 4.9122 16.0893 4.75592C16.2456 4.59964 16.3334 4.38768 16.3334 4.16667C16.3334 3.94565 16.2456 3.73369 16.0893 3.57741C15.9331 3.42113 15.7211 3.33333 15.5001 3.33333ZM7.16675 1.66667H8.83342C9.35031 1.6673 9.85435 1.82781 10.2764 2.1262C10.6985 2.42459 11.0179 2.84624 11.1909 3.33333H4.80925C4.98223 2.84624 5.30167 2.42459 5.72374 2.1262C6.14581 1.82781 6.64985 1.6673 7.16675 1.66667ZM13.0001 15.8333C13.0001 16.4964 12.7367 17.1323 12.2678 17.6011C11.799 18.0699 11.1631 18.3333 10.5001 18.3333H5.50008C4.83704 18.3333 4.20116 18.0699 3.73231 17.6011C3.26347 17.1323 3.00008 16.4964 3.00008 15.8333V5H13.0001V15.8333Z" fill="#656565"/>
<path d="M6.33333 15C6.55435 15 6.76631 14.9122 6.92259 14.756C7.07887 14.5997 7.16667 14.3877 7.16667 14.1667V9.16671C7.16667 8.94569 7.07887 8.73373 6.92259 8.57745C6.76631 8.42117 6.55435 8.33337 6.33333 8.33337C6.11232 8.33337 5.90036 8.42117 5.74408 8.57745C5.5878 8.73373 5.5 8.94569 5.5 9.16671V14.1667C5.5 14.3877 5.5878 14.5997 5.74408 14.756C5.90036 14.9122 6.11232 15 6.33333 15Z" fill="#656565"/>
<path d="M9.66659 15C9.8876 15 10.0996 14.9122 10.2558 14.756C10.4121 14.5997 10.4999 14.3877 10.4999 14.1667V9.16671C10.4999 8.94569 10.4121 8.73373 10.2558 8.57745C10.0996 8.42117 9.8876 8.33337 9.66659 8.33337C9.44557 8.33337 9.23361 8.42117 9.07733 8.57745C8.92105 8.73373 8.83325 8.94569 8.83325 9.16671V14.1667C8.83325 14.3877 8.92105 14.5997 9.07733 14.756C9.23361 14.9122 9.44557 15 9.66659 15Z" fill="#656565"/>
</g>
<defs>
<clipPath id="clip0_2883_1980">
<rect width="20" height="20" fill="white"/>
</clipPath>
</defs>
</svg>
