<svg xmlns="http://www.w3.org/2000/svg" width="42" height="44">
  <g class="layer">
    <path fill="#417D88" fill-rule="evenodd" d="M41.57 0H.5v44h41.07V0zM4.47 33.92v.77h3.24c.84 0 1.49-.11 1.95-.34.47-.23.8-.68.99-1.35.2-.67.29-1.64.29-2.93V9.29H7.71v20.78c0 1.16-.15 2.09-.45 2.8-.3.7-.99 1.05-2.07 1.05h-.72zM16.9 9.82v.25c.49 1.03 1.7 1.99 3 3.02 1.26 1 2.61 2.06 3.44 3.32.88 1.32 2.25 4.21 2.08 7.14 0 0-.58.02-.79-.7-1.6-5.38-4.18-6.17-4.18-6.17.25.57.58.94 1.04 1.45.09.11.19.22.3.34.58.66.12 1.15.12 1.15-.82-.39-2.18-1.84-2.83-2.79-1.25-1.46-1.88-2.85-2.18-4v21.86h-1.43V13.91c0-1.16-.23-2.09-.69-2.79-.45-.71-1.3-1.06-2.55-1.06h-.36v-.77h2.34c1.97.13 2.05.17 2.42.38.05.03.09.05.14.08h.01c.04.02.08.04.12.07zm19.4.24v-.77h-3.23c-.84 0-1.49.12-1.96.35-.46.23-.79.68-.99 1.34-.19.67-.28 1.64-.28 2.93v18.16c-.21-1.17-.72-2.7-1.83-4.5-.6-.98-1.9-2.49-2.7-2.92 0 0-.48.46.07 1.15.1.13.19.25.28.36.44.53.76.92.98 1.5 0 0-2.55-.91-3.91-6.37-.19-.73-.76-.74-.76-.74-.3 2.92.95 5.87 1.77 7.24.76 1.26 1.99 2.32 3.14 3.32 1.38 1.2 2.66 2.31 2.96 3.57v.02h3.23V13.91c0-1.16.15-2.09.45-2.79.3-.71.99-1.06 2.07-1.06h.71z" clip-rule="evenodd"/>
  </g>
</svg>
