<svg width="41" height="40" viewBox="0 0 41 40" fill="none" xmlns="http://www.w3.org/2000/svg">
<path d="M4.87451 22.3423C4.4215 21.7207 4.19499 21.4099 4.03908 20.8086C3.93163 20.3942 3.93163 19.6051 4.03908 19.1907C4.19499 18.5894 4.4215 18.2786 4.87451 17.657C7.35687 14.2508 12.7962 8.33301 20.6252 8.33301C28.4541 8.33301 33.8935 14.2508 36.3758 17.657C36.8288 18.2786 37.0553 18.5894 37.2112 19.1907C37.3187 19.6051 37.3187 20.3942 37.2112 20.8086C37.0553 21.4099 36.8288 21.7207 36.3758 22.3423C33.8935 25.7485 28.4541 31.6663 20.6252 31.6663C12.7962 31.6663 7.35687 25.7485 4.87451 22.3423Z" stroke="#417D88" stroke-width="1.5" stroke-linecap="round" stroke-linejoin="round"/>
<path d="M20.6248 23.3337C22.4658 23.3337 23.9582 21.8413 23.9582 20.0003C23.9582 18.1594 22.4658 16.667 20.6248 16.667C18.7839 16.667 17.2915 18.1594 17.2915 20.0003C17.2915 21.8413 18.7839 23.3337 20.6248 23.3337Z" stroke="#417D88" stroke-width="1.5" stroke-linecap="round" stroke-linejoin="round"/>
</svg>
