<svg width="65" height="45" viewBox="0 0 65 45" fill="none" xmlns="http://www.w3.org/2000/svg">
<path fill-rule="evenodd" clip-rule="evenodd" d="M32.6239 0.583332C18.0405 0.583628 5.58655 9.65472 0.540972 22.459C5.58707 35.2631 18.0414 44.3336 32.6248 44.3333C47.2081 44.333 59.6621 35.262 64.7076 22.4577C59.6616 9.65362 47.2072 0.583035 32.6239 0.583332ZM32.6245 37.0416C24.5745 37.0418 18.041 30.5086 18.0409 22.4586C18.0407 14.4086 24.5739 7.87511 32.6239 7.87495C40.6739 7.87478 47.2074 14.408 47.2075 22.458C47.2077 30.508 40.6745 37.0415 32.6245 37.0416ZM32.6241 13.7083C27.7825 13.7084 23.8742 17.6168 23.8743 22.4585C23.8744 27.3002 27.7828 31.2084 32.6245 31.2083C37.4662 31.2082 41.3744 27.2998 41.3743 22.4582C41.3742 17.6165 37.4658 13.7082 32.6241 13.7083Z" fill="#417D88"/>
</svg>
