<svg width="21" height="20" viewBox="0 0 21 20" fill="none" xmlns="http://www.w3.org/2000/svg">
<g clip-path="url(#clip0_7457_9267)">
<path d="M16.3333 0H4.66667C3.562 0.00132321 2.50296 0.440735 1.72185 1.22185C0.940735 2.00296 0.501323 3.062 0.5 4.16667L0.5 15.8333C0.501323 16.938 0.940735 17.997 1.72185 18.7782C2.50296 19.5593 3.562 19.9987 4.66667 20H16.3333C17.438 19.9987 18.497 19.5593 19.2782 18.7782C20.0593 17.997 20.4987 16.938 20.5 15.8333V4.16667C20.4987 3.062 20.0593 2.00296 19.2782 1.22185C18.497 0.440735 17.438 0.00132321 16.3333 0ZM4.66667 1.66667H16.3333C16.9964 1.66667 17.6323 1.93006 18.1011 2.3989C18.5699 2.86774 18.8333 3.50363 18.8333 4.16667V15.8333C18.8319 16.2046 18.7464 16.5707 18.5833 16.9042L10.9475 9.26833C10.5606 8.88131 10.1012 8.57429 9.5956 8.36483C9.09001 8.15537 8.5481 8.04756 8.00083 8.04756C7.45357 8.04756 6.91166 8.15537 6.40606 8.36483C5.90047 8.57429 5.44109 8.88131 5.05417 9.26833L2.16667 12.155V4.16667C2.16667 3.50363 2.43006 2.86774 2.8989 2.3989C3.36774 1.93006 4.00363 1.66667 4.66667 1.66667ZM4.66667 18.3333C4.00363 18.3333 3.36774 18.0699 2.8989 17.6011C2.43006 17.1323 2.16667 16.4964 2.16667 15.8333V14.5117L6.23167 10.4467C6.46383 10.2144 6.7395 10.0301 7.04292 9.90432C7.34634 9.77858 7.67156 9.71387 8 9.71387C8.32844 9.71387 8.65366 9.77858 8.95708 9.90432C9.2605 10.0301 9.53617 10.2144 9.76833 10.4467L17.4042 18.0833C17.0707 18.2464 16.7046 18.3319 16.3333 18.3333H4.66667Z" fill="#656565"/>
<path d="M13.8332 8.75033C14.41 8.75033 14.9739 8.57927 15.4536 8.25878C15.9332 7.93829 16.3071 7.48277 16.5278 6.94982C16.7486 6.41687 16.8063 5.83043 16.6938 5.26465C16.5813 4.69887 16.3035 4.17917 15.8956 3.77127C15.4877 3.36336 14.968 3.08558 14.4022 2.97304C13.8364 2.8605 13.25 2.91826 12.717 3.13901C12.1841 3.35977 11.7285 3.7336 11.4081 4.21325C11.0876 4.69289 10.9165 5.2568 10.9165 5.83366C10.9165 6.60721 11.2238 7.34907 11.7708 7.89605C12.3178 8.44304 13.0596 8.75033 13.8332 8.75033ZM13.8332 4.58366C14.0804 4.58366 14.3221 4.65697 14.5276 4.79432C14.7332 4.93168 14.8934 5.1269 14.988 5.35531C15.0826 5.58371 15.1074 5.83505 15.0592 6.07752C15.0109 6.32 14.8919 6.54273 14.7171 6.71754C14.5422 6.89236 14.3195 7.01141 14.077 7.05964C13.8346 7.10787 13.5832 7.08312 13.3548 6.98851C13.1264 6.8939 12.9312 6.73368 12.7938 6.52812C12.6565 6.32256 12.5832 6.08089 12.5832 5.83366C12.5832 5.50214 12.7149 5.1842 12.9493 4.94978C13.1837 4.71536 13.5017 4.58366 13.8332 4.58366Z" fill="#656565"/>
</g>
<defs>
<clipPath id="clip0_7457_9267">
<rect width="20" height="20" fill="white" transform="translate(0.5)"/>
</clipPath>
</defs>
</svg>
