<svg width="25" height="24" viewBox="0 0 25 24" fill="none" xmlns="http://www.w3.org/2000/svg">
<path d="M9.1665 12.3333L10.6723 14.0543C11.0957 14.5382 11.8591 14.5025 12.2356 13.9813L15.8332 9" stroke="#656565" stroke-width="1.5" stroke-linecap="round" stroke-linejoin="round"/>
<path d="M3.5 12C3.5 7.75736 3.5 5.63604 4.81802 4.31802C6.13604 3 8.25736 3 12.5 3C16.7426 3 18.864 3 20.182 4.31802C21.5 5.63604 21.5 7.75736 21.5 12C21.5 16.2426 21.5 18.364 20.182 19.682C18.864 21 16.7426 21 12.5 21C8.25736 21 6.13604 21 4.81802 19.682C3.5 18.364 3.5 16.2426 3.5 12Z" stroke="#656565" stroke-width="1.5" stroke-linecap="round" stroke-linejoin="round"/>
</svg>
