<svg width="25" height="24" viewBox="0 0 25 24" fill="none" xmlns="http://www.w3.org/2000/svg">
<path d="M7 6H18" stroke="#656565" stroke-width="1.5" stroke-linecap="round" stroke-linejoin="round"/>
<path d="M7 10H18" stroke="#656565" stroke-width="1.5" stroke-linecap="round" stroke-linejoin="round"/>
<path d="M7 14H18" stroke="#656565" stroke-width="1.5" stroke-linecap="round" stroke-linejoin="round"/>
<path d="M7 18H18" stroke="#656565" stroke-width="1.5" stroke-linecap="round" stroke-linejoin="round"/>
<path d="M18.3333 2H6.66667C5.562 2.00132 4.50296 2.44073 3.72185 3.22185C2.94073 4.00296 2.50132 5.062 2.5 6.16667L2.5 17.8333C2.50132 18.938 2.94073 19.997 3.72185 20.7782C4.50296 21.5593 5.562 21.9987 6.66667 22H18.3333C19.438 21.9987 20.497 21.5593 21.2782 20.7782C22.0593 19.997 22.4987 18.938 22.5 17.8333V6.16667C22.4987 5.062 22.0593 4.00296 21.2782 3.22185C20.497 2.44073 19.438 2.00132 18.3333 2ZM20.8333 17.8333C20.8333 18.4964 20.5699 19.1323 20.1011 19.6011C19.6323 20.0699 18.9964 20.3333 18.3333 20.3333H6.66667C6.00363 20.3333 5.36774 20.0699 4.8989 19.6011C4.43006 19.1323 4.16667 18.4964 4.16667 17.8333V6.16667C4.16667 5.50363 4.43006 4.86774 4.8989 4.3989C5.36774 3.93006 6.00363 3.66667 6.66667 3.66667H18.3333C18.9964 3.66667 19.6323 3.93006 20.1011 4.3989C20.5699 4.86774 20.8333 5.50363 20.8333 6.16667V17.8333Z" fill="#656565"/>
</svg>
