<svg width="21" height="20" viewBox="0 0 21 20" fill="none" xmlns="http://www.w3.org/2000/svg">
<path d="M16.3333 0H4.66667C3.562 0.00132321 2.50296 0.440735 1.72185 1.22185C0.940735 2.00296 0.501323 3.062 0.5 4.16667L0.5 15.8333C0.501323 16.938 0.940735 17.997 1.72185 18.7782C2.50296 19.5593 3.562 19.9987 4.66667 20H16.3333C17.438 19.9987 18.497 19.5593 19.2782 18.7782C20.0593 17.997 20.4987 16.938 20.5 15.8333V4.16667C20.4987 3.062 20.0593 2.00296 19.2782 1.22185C18.497 0.440735 17.438 0.00132321 16.3333 0ZM18.8333 15.8333C18.8333 16.4964 18.5699 17.1323 18.1011 17.6011C17.6323 18.0699 16.9964 18.3333 16.3333 18.3333H4.66667C4.00363 18.3333 3.36774 18.0699 2.8989 17.6011C2.43006 17.1323 2.16667 16.4964 2.16667 15.8333V4.16667C2.16667 3.50363 2.43006 2.86774 2.8989 2.3989C3.36774 1.93006 4.00363 1.66667 4.66667 1.66667H16.3333C16.9964 1.66667 17.6323 1.93006 18.1011 2.3989C18.5699 2.86774 18.8333 3.50363 18.8333 4.16667V15.8333ZM15.5 7.5C15.5 7.72101 15.4122 7.93297 15.2559 8.08926C15.0996 8.24554 14.8877 8.33333 14.6667 8.33333C14.4457 8.33333 14.2337 8.24554 14.0774 8.08926C13.9211 7.93297 13.8333 7.72101 13.8333 7.5C13.8333 7.27899 13.7455 7.06702 13.5893 6.91074C13.433 6.75446 13.221 6.66667 13 6.66667H11.3333V13.3333H12.1667C12.3877 13.3333 12.5996 13.4211 12.7559 13.5774C12.9122 13.7337 13 13.9457 13 14.1667C13 14.3877 12.9122 14.5996 12.7559 14.7559C12.5996 14.9122 12.3877 15 12.1667 15H8.83333C8.61232 15 8.40036 14.9122 8.24408 14.7559C8.0878 14.5996 8 14.3877 8 14.1667C8 13.9457 8.0878 13.7337 8.24408 13.5774C8.40036 13.4211 8.61232 13.3333 8.83333 13.3333H9.66667V6.66667H8C7.77899 6.66667 7.56702 6.75446 7.41074 6.91074C7.25446 7.06702 7.16667 7.27899 7.16667 7.5C7.16667 7.72101 7.07887 7.93297 6.92259 8.08926C6.76631 8.24554 6.55435 8.33333 6.33333 8.33333C6.11232 8.33333 5.90036 8.24554 5.74408 8.08926C5.5878 7.93297 5.5 7.72101 5.5 7.5C5.5 6.83696 5.76339 6.20107 6.23223 5.73223C6.70107 5.26339 7.33696 5 8 5H13C13.663 5 14.2989 5.26339 14.7678 5.73223C15.2366 6.20107 15.5 6.83696 15.5 7.5Z" fill="#656565"/>
</svg>
