<svg width="40" height="38" viewBox="0 0 40 38" fill="none" xmlns="http://www.w3.org/2000/svg">
<path d="M28.9785 35.875V26.9412C28.9785 25.2965 27.492 23.9632 25.6582 23.9632H14.5905C12.7567 23.9632 11.2702 25.2965 11.2702 26.9412V35.875M28.9785 2.65996V7.08824C28.9785 8.73291 27.492 10.0662 25.6582 10.0662H14.5905C12.7567 10.0662 11.2702 8.73291 11.2702 7.08824V2.125M28.9785 2.65996C28.1229 2.31073 27.1861 2.125 26.2279 2.125H11.2702M28.9785 2.65996C29.6956 2.95264 30.3557 3.36016 30.9235 3.86944L35.8877 8.32174C37.133 9.43869 37.8327 10.9536 37.8327 12.5332V29.9191C37.8327 33.2085 34.8596 35.875 31.1921 35.875H9.05664C5.38912 35.875 2.41602 33.2085 2.41602 29.9191V8.08088C2.41602 4.79154 5.38912 2.125 9.05664 2.125H11.2702" stroke="#417D88" stroke-width="3" stroke-linecap="round" stroke-linejoin="round"/>
</svg>
