<svg width="41" height="36" viewBox="0 0 41 36" fill="none" xmlns="http://www.w3.org/2000/svg">
<path d="M27.7085 31.5V24.3529C27.7085 23.0372 26.5193 21.9706 25.0522 21.9706H16.1981C14.7311 21.9706 13.5418 23.0372 13.5418 24.3529V31.5M27.7085 4.92797V8.47059C27.7085 9.78633 26.5193 10.8529 25.0522 10.8529H16.1981C14.7311 10.8529 13.5418 9.78633 13.5418 8.47059V4.5M27.7085 4.92797C27.024 4.64858 26.2745 4.5 25.508 4.5H13.5418M27.7085 4.92797C28.2822 5.16211 28.8102 5.48813 29.2645 5.89555L33.2358 9.45739C34.2321 10.3509 34.7918 11.5629 34.7918 12.8265V26.7353C34.7918 29.3668 32.4133 31.5 29.4793 31.5H11.771C8.83698 31.5 6.4585 29.3668 6.4585 26.7353V9.26471C6.4585 6.63323 8.83698 4.5 11.771 4.5H13.5418" stroke="#417D88" stroke-width="1.5" stroke-linecap="round" stroke-linejoin="round"/>
</svg>
