<svg width="61" height="52" viewBox="0 0 61 52" fill="none" xmlns="http://www.w3.org/2000/svg">
<path d="M40.7493 45.5V35.1765C40.7493 33.276 38.9654 31.7353 36.7649 31.7353H23.4836C21.2831 31.7353 19.4993 33.276 19.4993 35.1765V45.5M40.7493 7.11817V12.2353C40.7493 14.1358 38.9654 15.6765 36.7649 15.6765H23.4836C21.2831 15.6765 19.4993 14.1358 19.4993 12.2353V6.5M40.7493 7.11817C39.7225 6.71462 38.5983 6.5 37.4485 6.5H19.4993M40.7493 7.11817C41.6098 7.45638 42.4019 7.9273 43.0833 8.51579L49.0403 13.6607C50.5347 14.9514 51.3743 16.7019 51.3743 18.5272V38.6176C51.3743 42.4187 47.8065 45.5 43.4055 45.5H16.843C12.442 45.5 8.87427 42.4187 8.87427 38.6176V13.3824C8.87427 9.58133 12.442 6.5 16.843 6.5H19.4993" stroke="#417D88" stroke-width="5" stroke-linecap="round" stroke-linejoin="round"/>
</svg>
