<svg width="21" height="20" viewBox="0 0 21 20" fill="none" xmlns="http://www.w3.org/2000/svg">
<path d="M4.66669 2.5H11.3334C12.2174 2.5 13.0653 2.89509 13.6904 3.59835C14.3155 4.30161 14.6667 5.25544 14.6667 6.25C14.6667 7.24456 14.3155 8.19839 13.6904 8.90165C13.0653 9.60491 12.2174 10 11.3334 10H4.66669V2.5Z" stroke="#656565" stroke-opacity="0.8" stroke-width="1.5" stroke-linecap="round" stroke-linejoin="round"/>
<path d="M4.66669 10H13.0321C14.0181 10 14.9638 10.3951 15.6611 11.0983C16.3583 11.8016 16.75 12.7554 16.75 13.75C16.75 14.7446 16.3583 15.6984 15.6611 16.4016C14.9638 17.1049 14.0181 17.5 13.0321 17.5H4.66669V10Z" stroke="#656565" stroke-opacity="0.8" stroke-width="1.5" stroke-linecap="round" stroke-linejoin="round"/>
</svg>
